G75*
%MOIN*%
%OFA0B0*%
%FSLAX24Y24*%
%IPPOS*%
%LPD*%
%AMOC8*
5,1,8,0,0,1.08239X$1,22.5*
%
%ADD10C,0.0000*%
%ADD11C,0.0740*%
%ADD12C,0.0480*%
%ADD13C,0.0480*%
%ADD14C,0.0551*%
%ADD15OC8,0.1000*%
%ADD16C,0.0600*%
%ADD17R,0.0600X0.0600*%
%ADD18OC8,0.0600*%
%ADD19C,0.0130*%
%ADD20C,0.0100*%
D10*
X006284Y003416D02*
X030694Y003416D01*
X030064Y004990D02*
X030066Y005040D01*
X030072Y005090D01*
X030082Y005139D01*
X030096Y005187D01*
X030113Y005234D01*
X030134Y005279D01*
X030159Y005323D01*
X030187Y005364D01*
X030219Y005403D01*
X030253Y005440D01*
X030290Y005474D01*
X030330Y005504D01*
X030372Y005531D01*
X030416Y005555D01*
X030462Y005576D01*
X030509Y005592D01*
X030557Y005605D01*
X030607Y005614D01*
X030656Y005619D01*
X030707Y005620D01*
X030757Y005617D01*
X030806Y005610D01*
X030855Y005599D01*
X030903Y005584D01*
X030949Y005566D01*
X030994Y005544D01*
X031037Y005518D01*
X031078Y005489D01*
X031117Y005457D01*
X031153Y005422D01*
X031185Y005384D01*
X031215Y005344D01*
X031242Y005301D01*
X031265Y005257D01*
X031284Y005211D01*
X031300Y005163D01*
X031312Y005114D01*
X031320Y005065D01*
X031324Y005015D01*
X031324Y004965D01*
X031320Y004915D01*
X031312Y004866D01*
X031300Y004817D01*
X031284Y004769D01*
X031265Y004723D01*
X031242Y004679D01*
X031215Y004636D01*
X031185Y004596D01*
X031153Y004558D01*
X031117Y004523D01*
X031078Y004491D01*
X031037Y004462D01*
X030994Y004436D01*
X030949Y004414D01*
X030903Y004396D01*
X030855Y004381D01*
X030806Y004370D01*
X030757Y004363D01*
X030707Y004360D01*
X030656Y004361D01*
X030607Y004366D01*
X030557Y004375D01*
X030509Y004388D01*
X030462Y004404D01*
X030416Y004425D01*
X030372Y004449D01*
X030330Y004476D01*
X030290Y004506D01*
X030253Y004540D01*
X030219Y004577D01*
X030187Y004616D01*
X030159Y004657D01*
X030134Y004701D01*
X030113Y004746D01*
X030096Y004793D01*
X030082Y004841D01*
X030072Y004890D01*
X030066Y004940D01*
X030064Y004990D01*
X030694Y003415D02*
X030771Y003417D01*
X030848Y003423D01*
X030925Y003432D01*
X031001Y003445D01*
X031077Y003462D01*
X031151Y003483D01*
X031225Y003507D01*
X031297Y003535D01*
X031367Y003566D01*
X031436Y003601D01*
X031504Y003639D01*
X031569Y003680D01*
X031632Y003725D01*
X031693Y003773D01*
X031752Y003823D01*
X031808Y003876D01*
X031861Y003932D01*
X031911Y003991D01*
X031959Y004052D01*
X032004Y004115D01*
X032045Y004180D01*
X032083Y004248D01*
X032118Y004317D01*
X032149Y004387D01*
X032177Y004459D01*
X032201Y004533D01*
X032222Y004607D01*
X032239Y004683D01*
X032252Y004759D01*
X032261Y004836D01*
X032267Y004913D01*
X032269Y004990D01*
X032269Y018770D01*
X030064Y018770D02*
X030066Y018820D01*
X030072Y018870D01*
X030082Y018919D01*
X030096Y018967D01*
X030113Y019014D01*
X030134Y019059D01*
X030159Y019103D01*
X030187Y019144D01*
X030219Y019183D01*
X030253Y019220D01*
X030290Y019254D01*
X030330Y019284D01*
X030372Y019311D01*
X030416Y019335D01*
X030462Y019356D01*
X030509Y019372D01*
X030557Y019385D01*
X030607Y019394D01*
X030656Y019399D01*
X030707Y019400D01*
X030757Y019397D01*
X030806Y019390D01*
X030855Y019379D01*
X030903Y019364D01*
X030949Y019346D01*
X030994Y019324D01*
X031037Y019298D01*
X031078Y019269D01*
X031117Y019237D01*
X031153Y019202D01*
X031185Y019164D01*
X031215Y019124D01*
X031242Y019081D01*
X031265Y019037D01*
X031284Y018991D01*
X031300Y018943D01*
X031312Y018894D01*
X031320Y018845D01*
X031324Y018795D01*
X031324Y018745D01*
X031320Y018695D01*
X031312Y018646D01*
X031300Y018597D01*
X031284Y018549D01*
X031265Y018503D01*
X031242Y018459D01*
X031215Y018416D01*
X031185Y018376D01*
X031153Y018338D01*
X031117Y018303D01*
X031078Y018271D01*
X031037Y018242D01*
X030994Y018216D01*
X030949Y018194D01*
X030903Y018176D01*
X030855Y018161D01*
X030806Y018150D01*
X030757Y018143D01*
X030707Y018140D01*
X030656Y018141D01*
X030607Y018146D01*
X030557Y018155D01*
X030509Y018168D01*
X030462Y018184D01*
X030416Y018205D01*
X030372Y018229D01*
X030330Y018256D01*
X030290Y018286D01*
X030253Y018320D01*
X030219Y018357D01*
X030187Y018396D01*
X030159Y018437D01*
X030134Y018481D01*
X030113Y018526D01*
X030096Y018573D01*
X030082Y018621D01*
X030072Y018670D01*
X030066Y018720D01*
X030064Y018770D01*
X030694Y020345D02*
X030771Y020343D01*
X030848Y020337D01*
X030925Y020328D01*
X031001Y020315D01*
X031077Y020298D01*
X031151Y020277D01*
X031225Y020253D01*
X031297Y020225D01*
X031367Y020194D01*
X031436Y020159D01*
X031504Y020121D01*
X031569Y020080D01*
X031632Y020035D01*
X031693Y019987D01*
X031752Y019937D01*
X031808Y019884D01*
X031861Y019828D01*
X031911Y019769D01*
X031959Y019708D01*
X032004Y019645D01*
X032045Y019580D01*
X032083Y019512D01*
X032118Y019443D01*
X032149Y019373D01*
X032177Y019301D01*
X032201Y019227D01*
X032222Y019153D01*
X032239Y019077D01*
X032252Y019001D01*
X032261Y018924D01*
X032267Y018847D01*
X032269Y018770D01*
X030694Y020345D02*
X006284Y020345D01*
X005654Y018770D02*
X005656Y018820D01*
X005662Y018870D01*
X005672Y018919D01*
X005686Y018967D01*
X005703Y019014D01*
X005724Y019059D01*
X005749Y019103D01*
X005777Y019144D01*
X005809Y019183D01*
X005843Y019220D01*
X005880Y019254D01*
X005920Y019284D01*
X005962Y019311D01*
X006006Y019335D01*
X006052Y019356D01*
X006099Y019372D01*
X006147Y019385D01*
X006197Y019394D01*
X006246Y019399D01*
X006297Y019400D01*
X006347Y019397D01*
X006396Y019390D01*
X006445Y019379D01*
X006493Y019364D01*
X006539Y019346D01*
X006584Y019324D01*
X006627Y019298D01*
X006668Y019269D01*
X006707Y019237D01*
X006743Y019202D01*
X006775Y019164D01*
X006805Y019124D01*
X006832Y019081D01*
X006855Y019037D01*
X006874Y018991D01*
X006890Y018943D01*
X006902Y018894D01*
X006910Y018845D01*
X006914Y018795D01*
X006914Y018745D01*
X006910Y018695D01*
X006902Y018646D01*
X006890Y018597D01*
X006874Y018549D01*
X006855Y018503D01*
X006832Y018459D01*
X006805Y018416D01*
X006775Y018376D01*
X006743Y018338D01*
X006707Y018303D01*
X006668Y018271D01*
X006627Y018242D01*
X006584Y018216D01*
X006539Y018194D01*
X006493Y018176D01*
X006445Y018161D01*
X006396Y018150D01*
X006347Y018143D01*
X006297Y018140D01*
X006246Y018141D01*
X006197Y018146D01*
X006147Y018155D01*
X006099Y018168D01*
X006052Y018184D01*
X006006Y018205D01*
X005962Y018229D01*
X005920Y018256D01*
X005880Y018286D01*
X005843Y018320D01*
X005809Y018357D01*
X005777Y018396D01*
X005749Y018437D01*
X005724Y018481D01*
X005703Y018526D01*
X005686Y018573D01*
X005672Y018621D01*
X005662Y018670D01*
X005656Y018720D01*
X005654Y018770D01*
X004709Y018770D02*
X004711Y018847D01*
X004717Y018924D01*
X004726Y019001D01*
X004739Y019077D01*
X004756Y019153D01*
X004777Y019227D01*
X004801Y019301D01*
X004829Y019373D01*
X004860Y019443D01*
X004895Y019512D01*
X004933Y019580D01*
X004974Y019645D01*
X005019Y019708D01*
X005067Y019769D01*
X005117Y019828D01*
X005170Y019884D01*
X005226Y019937D01*
X005285Y019987D01*
X005346Y020035D01*
X005409Y020080D01*
X005474Y020121D01*
X005542Y020159D01*
X005611Y020194D01*
X005681Y020225D01*
X005753Y020253D01*
X005827Y020277D01*
X005901Y020298D01*
X005977Y020315D01*
X006053Y020328D01*
X006130Y020337D01*
X006207Y020343D01*
X006284Y020345D01*
X004709Y018770D02*
X004709Y004990D01*
X005654Y004990D02*
X005656Y005040D01*
X005662Y005090D01*
X005672Y005139D01*
X005686Y005187D01*
X005703Y005234D01*
X005724Y005279D01*
X005749Y005323D01*
X005777Y005364D01*
X005809Y005403D01*
X005843Y005440D01*
X005880Y005474D01*
X005920Y005504D01*
X005962Y005531D01*
X006006Y005555D01*
X006052Y005576D01*
X006099Y005592D01*
X006147Y005605D01*
X006197Y005614D01*
X006246Y005619D01*
X006297Y005620D01*
X006347Y005617D01*
X006396Y005610D01*
X006445Y005599D01*
X006493Y005584D01*
X006539Y005566D01*
X006584Y005544D01*
X006627Y005518D01*
X006668Y005489D01*
X006707Y005457D01*
X006743Y005422D01*
X006775Y005384D01*
X006805Y005344D01*
X006832Y005301D01*
X006855Y005257D01*
X006874Y005211D01*
X006890Y005163D01*
X006902Y005114D01*
X006910Y005065D01*
X006914Y005015D01*
X006914Y004965D01*
X006910Y004915D01*
X006902Y004866D01*
X006890Y004817D01*
X006874Y004769D01*
X006855Y004723D01*
X006832Y004679D01*
X006805Y004636D01*
X006775Y004596D01*
X006743Y004558D01*
X006707Y004523D01*
X006668Y004491D01*
X006627Y004462D01*
X006584Y004436D01*
X006539Y004414D01*
X006493Y004396D01*
X006445Y004381D01*
X006396Y004370D01*
X006347Y004363D01*
X006297Y004360D01*
X006246Y004361D01*
X006197Y004366D01*
X006147Y004375D01*
X006099Y004388D01*
X006052Y004404D01*
X006006Y004425D01*
X005962Y004449D01*
X005920Y004476D01*
X005880Y004506D01*
X005843Y004540D01*
X005809Y004577D01*
X005777Y004616D01*
X005749Y004657D01*
X005724Y004701D01*
X005703Y004746D01*
X005686Y004793D01*
X005672Y004841D01*
X005662Y004890D01*
X005656Y004940D01*
X005654Y004990D01*
X004709Y004990D02*
X004711Y004913D01*
X004717Y004836D01*
X004726Y004759D01*
X004739Y004683D01*
X004756Y004607D01*
X004777Y004533D01*
X004801Y004459D01*
X004829Y004387D01*
X004860Y004317D01*
X004895Y004248D01*
X004933Y004180D01*
X004974Y004115D01*
X005019Y004052D01*
X005067Y003991D01*
X005117Y003932D01*
X005170Y003876D01*
X005226Y003823D01*
X005285Y003773D01*
X005346Y003725D01*
X005409Y003680D01*
X005474Y003639D01*
X005542Y003601D01*
X005611Y003566D01*
X005681Y003535D01*
X005753Y003507D01*
X005827Y003483D01*
X005901Y003462D01*
X005977Y003445D01*
X006053Y003432D01*
X006130Y003423D01*
X006207Y003417D01*
X006284Y003415D01*
X011233Y008880D02*
X011235Y008911D01*
X011241Y008942D01*
X011250Y008972D01*
X011263Y009001D01*
X011280Y009028D01*
X011300Y009052D01*
X011322Y009074D01*
X011348Y009093D01*
X011375Y009109D01*
X011404Y009121D01*
X011434Y009130D01*
X011465Y009135D01*
X011497Y009136D01*
X011528Y009133D01*
X011559Y009126D01*
X011589Y009116D01*
X011617Y009102D01*
X011643Y009084D01*
X011667Y009064D01*
X011688Y009040D01*
X011707Y009015D01*
X011722Y008987D01*
X011733Y008958D01*
X011741Y008927D01*
X011745Y008896D01*
X011745Y008864D01*
X011741Y008833D01*
X011733Y008802D01*
X011722Y008773D01*
X011707Y008745D01*
X011688Y008720D01*
X011667Y008696D01*
X011643Y008676D01*
X011617Y008658D01*
X011589Y008644D01*
X011559Y008634D01*
X011528Y008627D01*
X011497Y008624D01*
X011465Y008625D01*
X011434Y008630D01*
X011404Y008639D01*
X011375Y008651D01*
X011348Y008667D01*
X011322Y008686D01*
X011300Y008708D01*
X011280Y008732D01*
X011263Y008759D01*
X011250Y008788D01*
X011241Y008818D01*
X011235Y008849D01*
X011233Y008880D01*
X014233Y008880D02*
X014235Y008911D01*
X014241Y008942D01*
X014250Y008972D01*
X014263Y009001D01*
X014280Y009028D01*
X014300Y009052D01*
X014322Y009074D01*
X014348Y009093D01*
X014375Y009109D01*
X014404Y009121D01*
X014434Y009130D01*
X014465Y009135D01*
X014497Y009136D01*
X014528Y009133D01*
X014559Y009126D01*
X014589Y009116D01*
X014617Y009102D01*
X014643Y009084D01*
X014667Y009064D01*
X014688Y009040D01*
X014707Y009015D01*
X014722Y008987D01*
X014733Y008958D01*
X014741Y008927D01*
X014745Y008896D01*
X014745Y008864D01*
X014741Y008833D01*
X014733Y008802D01*
X014722Y008773D01*
X014707Y008745D01*
X014688Y008720D01*
X014667Y008696D01*
X014643Y008676D01*
X014617Y008658D01*
X014589Y008644D01*
X014559Y008634D01*
X014528Y008627D01*
X014497Y008624D01*
X014465Y008625D01*
X014434Y008630D01*
X014404Y008639D01*
X014375Y008651D01*
X014348Y008667D01*
X014322Y008686D01*
X014300Y008708D01*
X014280Y008732D01*
X014263Y008759D01*
X014250Y008788D01*
X014241Y008818D01*
X014235Y008849D01*
X014233Y008880D01*
X014233Y014880D02*
X014235Y014911D01*
X014241Y014942D01*
X014250Y014972D01*
X014263Y015001D01*
X014280Y015028D01*
X014300Y015052D01*
X014322Y015074D01*
X014348Y015093D01*
X014375Y015109D01*
X014404Y015121D01*
X014434Y015130D01*
X014465Y015135D01*
X014497Y015136D01*
X014528Y015133D01*
X014559Y015126D01*
X014589Y015116D01*
X014617Y015102D01*
X014643Y015084D01*
X014667Y015064D01*
X014688Y015040D01*
X014707Y015015D01*
X014722Y014987D01*
X014733Y014958D01*
X014741Y014927D01*
X014745Y014896D01*
X014745Y014864D01*
X014741Y014833D01*
X014733Y014802D01*
X014722Y014773D01*
X014707Y014745D01*
X014688Y014720D01*
X014667Y014696D01*
X014643Y014676D01*
X014617Y014658D01*
X014589Y014644D01*
X014559Y014634D01*
X014528Y014627D01*
X014497Y014624D01*
X014465Y014625D01*
X014434Y014630D01*
X014404Y014639D01*
X014375Y014651D01*
X014348Y014667D01*
X014322Y014686D01*
X014300Y014708D01*
X014280Y014732D01*
X014263Y014759D01*
X014250Y014788D01*
X014241Y014818D01*
X014235Y014849D01*
X014233Y014880D01*
X011233Y014880D02*
X011235Y014911D01*
X011241Y014942D01*
X011250Y014972D01*
X011263Y015001D01*
X011280Y015028D01*
X011300Y015052D01*
X011322Y015074D01*
X011348Y015093D01*
X011375Y015109D01*
X011404Y015121D01*
X011434Y015130D01*
X011465Y015135D01*
X011497Y015136D01*
X011528Y015133D01*
X011559Y015126D01*
X011589Y015116D01*
X011617Y015102D01*
X011643Y015084D01*
X011667Y015064D01*
X011688Y015040D01*
X011707Y015015D01*
X011722Y014987D01*
X011733Y014958D01*
X011741Y014927D01*
X011745Y014896D01*
X011745Y014864D01*
X011741Y014833D01*
X011733Y014802D01*
X011722Y014773D01*
X011707Y014745D01*
X011688Y014720D01*
X011667Y014696D01*
X011643Y014676D01*
X011617Y014658D01*
X011589Y014644D01*
X011559Y014634D01*
X011528Y014627D01*
X011497Y014624D01*
X011465Y014625D01*
X011434Y014630D01*
X011404Y014639D01*
X011375Y014651D01*
X011348Y014667D01*
X011322Y014686D01*
X011300Y014708D01*
X011280Y014732D01*
X011263Y014759D01*
X011250Y014788D01*
X011241Y014818D01*
X011235Y014849D01*
X011233Y014880D01*
D11*
X023989Y015380D03*
X027989Y015380D03*
X027989Y007880D03*
X027989Y006380D03*
X023989Y006380D03*
X023989Y007880D03*
D12*
X024989Y009640D02*
X024989Y010120D01*
X025989Y010120D02*
X025989Y009640D01*
X026989Y009640D02*
X026989Y010120D01*
X022989Y010140D02*
X022989Y010620D01*
X021989Y010620D02*
X021989Y010140D01*
X020989Y010140D02*
X020989Y010620D01*
X019989Y010620D02*
X019989Y010140D01*
X019989Y013140D02*
X019989Y013620D01*
X020989Y013620D02*
X020989Y013140D01*
X021989Y013140D02*
X021989Y013620D01*
X022989Y013620D02*
X022989Y013140D01*
D13*
X025989Y013380D03*
X025989Y012380D03*
D14*
X025989Y017380D03*
X026989Y017380D03*
D15*
X019989Y017880D03*
X019989Y016380D03*
D16*
X021689Y016880D02*
X022289Y016880D01*
X022689Y017880D02*
X023289Y017880D01*
X023689Y016880D02*
X024289Y016880D01*
X028689Y013380D02*
X029289Y013380D01*
X029289Y012380D02*
X028689Y012380D01*
D17*
X021989Y007880D03*
D18*
X020989Y007880D03*
X019989Y007880D03*
X019989Y006880D03*
X020989Y006880D03*
X021989Y006880D03*
D19*
X020989Y005880D01*
X018989Y005880D01*
X018989Y012880D01*
X019989Y013880D01*
X019989Y013380D01*
X020989Y013380D02*
X020989Y011380D01*
X020489Y010880D01*
X020489Y008380D01*
X020989Y007880D01*
X021489Y007380D02*
X021489Y010880D01*
X023489Y012880D01*
X023489Y013880D01*
X023489Y014380D01*
X022989Y014880D01*
X022989Y017880D01*
X023989Y016880D02*
X023989Y015380D01*
X023989Y009880D01*
X024989Y009880D01*
X021489Y007380D02*
X020989Y006880D01*
X019989Y007880D02*
X019489Y008380D01*
X019489Y009880D01*
X019989Y010380D01*
X022989Y013380D02*
X023489Y013880D01*
X021989Y016380D02*
X019989Y014380D01*
X019989Y013880D01*
X021989Y016380D02*
X021989Y016880D01*
D20*
X022224Y016410D02*
X022382Y016410D01*
X022555Y016482D01*
X022687Y016614D01*
X022754Y016775D01*
X022754Y014783D01*
X022892Y014645D01*
X023254Y014283D01*
X023254Y013978D01*
X023233Y013956D01*
X023221Y013968D01*
X023071Y014030D01*
X022907Y014030D01*
X022757Y013968D01*
X022641Y013852D01*
X022579Y013702D01*
X022579Y013059D01*
X022641Y012908D01*
X022757Y012793D01*
X022907Y012730D01*
X023007Y012730D01*
X021254Y010978D01*
X021254Y010935D01*
X021221Y010968D01*
X021071Y011030D01*
X020971Y011030D01*
X021224Y011283D01*
X021224Y012795D01*
X021337Y012908D01*
X021399Y013059D01*
X021399Y013702D01*
X021337Y013852D01*
X021221Y013968D01*
X021071Y014030D01*
X020907Y014030D01*
X020757Y013968D01*
X020641Y013852D01*
X020579Y013702D01*
X020579Y013059D01*
X020641Y012908D01*
X020754Y012795D01*
X020754Y011478D01*
X020392Y011115D01*
X020254Y010978D01*
X020254Y010935D01*
X020221Y010968D01*
X020071Y011030D01*
X019907Y011030D01*
X019757Y010968D01*
X019641Y010852D01*
X019579Y010702D01*
X019579Y010303D01*
X019392Y010115D01*
X019254Y009978D01*
X019254Y008283D01*
X019519Y008018D01*
X019519Y007686D01*
X019794Y007410D01*
X020184Y007410D01*
X020459Y007686D01*
X020459Y008075D01*
X020184Y008350D01*
X019851Y008350D01*
X019724Y008478D01*
X019724Y009783D01*
X019745Y009804D01*
X019757Y009793D01*
X019907Y009730D01*
X020071Y009730D01*
X020221Y009793D01*
X020254Y009825D01*
X020254Y008283D01*
X020519Y008018D01*
X020519Y007686D01*
X020794Y007410D01*
X021184Y007410D01*
X021254Y007481D01*
X021254Y007478D01*
X021127Y007350D01*
X020794Y007350D01*
X020519Y007075D01*
X020519Y006686D01*
X020794Y006410D01*
X021184Y006410D01*
X021459Y006686D01*
X021459Y007018D01*
X021586Y007145D01*
X021724Y007283D01*
X021724Y007410D01*
X022359Y007410D01*
X022459Y007510D01*
X022459Y008251D01*
X022359Y008350D01*
X021724Y008350D01*
X021724Y009825D01*
X021757Y009793D01*
X021907Y009730D01*
X022071Y009730D01*
X022221Y009793D01*
X022337Y009908D01*
X022399Y010059D01*
X022399Y010702D01*
X022337Y010852D01*
X022221Y010968D01*
X022071Y011030D01*
X021971Y011030D01*
X023586Y012645D01*
X023724Y012783D01*
X023724Y014478D01*
X023224Y014978D01*
X023224Y016775D01*
X023291Y016614D01*
X023423Y016482D01*
X023595Y016410D01*
X023754Y016410D01*
X023754Y015867D01*
X023683Y015838D01*
X023531Y015686D01*
X023449Y015488D01*
X023449Y015273D01*
X023531Y015074D01*
X023683Y014922D01*
X023754Y014893D01*
X023754Y009783D01*
X023892Y009645D01*
X024579Y009645D01*
X024579Y009559D01*
X024641Y009408D01*
X024757Y009293D01*
X024907Y009230D01*
X025071Y009230D01*
X025221Y009293D01*
X025337Y009408D01*
X025399Y009559D01*
X025399Y010202D01*
X025337Y010352D01*
X025221Y010468D01*
X025071Y010530D01*
X024907Y010530D01*
X024757Y010468D01*
X024641Y010352D01*
X024579Y010202D01*
X024579Y010115D01*
X024224Y010115D01*
X024224Y014893D01*
X024295Y014922D01*
X024447Y015074D01*
X024529Y015273D01*
X024529Y015488D01*
X024447Y015686D01*
X024295Y015838D01*
X024224Y015867D01*
X024224Y016410D01*
X024382Y016410D01*
X024555Y016482D01*
X024687Y016614D01*
X024759Y016787D01*
X024759Y016974D01*
X024687Y017146D01*
X024555Y017279D01*
X024382Y017350D01*
X023595Y017350D01*
X023423Y017279D01*
X023291Y017146D01*
X023224Y016986D01*
X023224Y017410D01*
X023382Y017410D01*
X023555Y017482D01*
X023687Y017614D01*
X023759Y017787D01*
X023759Y017974D01*
X023687Y018146D01*
X023555Y018279D01*
X023382Y018350D01*
X022595Y018350D01*
X022423Y018279D01*
X022291Y018146D01*
X022219Y017974D01*
X022219Y017787D01*
X022291Y017614D01*
X022423Y017482D01*
X022595Y017410D01*
X022754Y017410D01*
X022754Y016986D01*
X022687Y017146D01*
X022555Y017279D01*
X022382Y017350D01*
X021595Y017350D01*
X021423Y017279D01*
X021291Y017146D01*
X021219Y016974D01*
X021219Y016787D01*
X021291Y016614D01*
X021423Y016482D01*
X021595Y016410D01*
X021687Y016410D01*
X019754Y014478D01*
X019754Y013978D01*
X018754Y012978D01*
X018754Y005783D01*
X018892Y005645D01*
X021086Y005645D01*
X021224Y005783D01*
X021851Y006410D01*
X022184Y006410D01*
X022459Y006686D01*
X022459Y007075D01*
X022184Y007350D01*
X021794Y007350D01*
X021519Y007075D01*
X021519Y006743D01*
X020892Y006115D01*
X019224Y006115D01*
X019224Y012783D01*
X019579Y013138D01*
X019579Y013059D01*
X019641Y012908D01*
X019757Y012793D01*
X019907Y012730D01*
X020071Y012730D01*
X020221Y012793D01*
X020337Y012908D01*
X020399Y013059D01*
X020399Y013702D01*
X020337Y013852D01*
X020224Y013965D01*
X020224Y014283D01*
X022086Y016145D01*
X022224Y016283D01*
X022224Y016410D01*
X022224Y016397D02*
X022754Y016397D01*
X022754Y016299D02*
X022224Y016299D01*
X022141Y016200D02*
X022754Y016200D01*
X022754Y016102D02*
X022043Y016102D01*
X021944Y016003D02*
X022754Y016003D01*
X022754Y015905D02*
X021846Y015905D01*
X021747Y015806D02*
X022754Y015806D01*
X022754Y015708D02*
X021649Y015708D01*
X021550Y015609D02*
X022754Y015609D01*
X022754Y015511D02*
X021452Y015511D01*
X021353Y015412D02*
X022754Y015412D01*
X022754Y015314D02*
X021255Y015314D01*
X021156Y015215D02*
X022754Y015215D01*
X022754Y015117D02*
X021058Y015117D01*
X020959Y015018D02*
X022754Y015018D01*
X022754Y014920D02*
X020861Y014920D01*
X020762Y014821D02*
X022754Y014821D01*
X022814Y014723D02*
X020664Y014723D01*
X020565Y014624D02*
X022913Y014624D01*
X023011Y014526D02*
X020467Y014526D01*
X020368Y014427D02*
X023110Y014427D01*
X023208Y014329D02*
X020270Y014329D01*
X020224Y014230D02*
X023254Y014230D01*
X023254Y014132D02*
X020224Y014132D01*
X020224Y014033D02*
X023254Y014033D01*
X023724Y014033D02*
X023754Y014033D01*
X023754Y013935D02*
X023724Y013935D01*
X023724Y013836D02*
X023754Y013836D01*
X023754Y013738D02*
X023724Y013738D01*
X023724Y013639D02*
X023754Y013639D01*
X023754Y013541D02*
X023724Y013541D01*
X023724Y013442D02*
X023754Y013442D01*
X023754Y013344D02*
X023724Y013344D01*
X023724Y013245D02*
X023754Y013245D01*
X023754Y013147D02*
X023724Y013147D01*
X023724Y013048D02*
X023754Y013048D01*
X023754Y012950D02*
X023724Y012950D01*
X023724Y012851D02*
X023754Y012851D01*
X023754Y012753D02*
X023694Y012753D01*
X023754Y012654D02*
X023595Y012654D01*
X023497Y012556D02*
X023754Y012556D01*
X023754Y012457D02*
X023398Y012457D01*
X023300Y012359D02*
X023754Y012359D01*
X023754Y012260D02*
X023201Y012260D01*
X023103Y012162D02*
X023754Y012162D01*
X023754Y012063D02*
X023004Y012063D01*
X022906Y011965D02*
X023754Y011965D01*
X023754Y011866D02*
X022807Y011866D01*
X022709Y011768D02*
X023754Y011768D01*
X023754Y011669D02*
X022610Y011669D01*
X022512Y011571D02*
X023754Y011571D01*
X023754Y011472D02*
X022413Y011472D01*
X022315Y011374D02*
X023754Y011374D01*
X023754Y011275D02*
X022216Y011275D01*
X022118Y011177D02*
X023754Y011177D01*
X023754Y011078D02*
X022019Y011078D01*
X022192Y010980D02*
X022838Y010980D01*
X022804Y010966D02*
X022740Y010923D01*
X022686Y010869D01*
X022643Y010805D01*
X022614Y010734D01*
X022599Y010659D01*
X022599Y010410D01*
X022959Y010410D01*
X022959Y010350D01*
X023019Y010350D01*
X023019Y009750D01*
X023027Y009750D01*
X023103Y009765D01*
X023174Y009795D01*
X023238Y009837D01*
X023292Y009892D01*
X023335Y009955D01*
X023364Y010026D01*
X023379Y010102D01*
X023379Y010350D01*
X023019Y010350D01*
X023019Y010410D01*
X023379Y010410D01*
X023379Y010659D01*
X023364Y010734D01*
X023335Y010805D01*
X023292Y010869D01*
X023238Y010923D01*
X023174Y010966D01*
X023103Y010995D01*
X023027Y011010D01*
X023019Y011010D01*
X023019Y010410D01*
X022959Y010410D01*
X022959Y011010D01*
X022951Y011010D01*
X022875Y010995D01*
X022804Y010966D01*
X022698Y010881D02*
X022308Y010881D01*
X022365Y010783D02*
X022634Y010783D01*
X022604Y010684D02*
X022399Y010684D01*
X022399Y010586D02*
X022599Y010586D01*
X022599Y010487D02*
X022399Y010487D01*
X022399Y010389D02*
X022959Y010389D01*
X022959Y010350D02*
X022599Y010350D01*
X022599Y010102D01*
X022614Y010026D01*
X022643Y009955D01*
X022686Y009892D01*
X022740Y009837D01*
X022804Y009795D01*
X022875Y009765D01*
X022951Y009750D01*
X022959Y009750D01*
X022959Y010350D01*
X022959Y010290D02*
X023019Y010290D01*
X023019Y010192D02*
X022959Y010192D01*
X022959Y010093D02*
X023019Y010093D01*
X023019Y009995D02*
X022959Y009995D01*
X022959Y009896D02*
X023019Y009896D01*
X023019Y009798D02*
X022959Y009798D01*
X022800Y009798D02*
X022226Y009798D01*
X022325Y009896D02*
X022683Y009896D01*
X022627Y009995D02*
X022372Y009995D01*
X022399Y010093D02*
X022601Y010093D01*
X022599Y010192D02*
X022399Y010192D01*
X022399Y010290D02*
X022599Y010290D01*
X022959Y010487D02*
X023019Y010487D01*
X023019Y010389D02*
X023754Y010389D01*
X023754Y010487D02*
X023379Y010487D01*
X023379Y010586D02*
X023754Y010586D01*
X023754Y010684D02*
X023374Y010684D01*
X023344Y010783D02*
X023754Y010783D01*
X023754Y010881D02*
X023280Y010881D01*
X023140Y010980D02*
X023754Y010980D01*
X024224Y010980D02*
X032069Y010980D01*
X032069Y011078D02*
X024224Y011078D01*
X024224Y011177D02*
X032069Y011177D01*
X032069Y011275D02*
X024224Y011275D01*
X024224Y011374D02*
X032069Y011374D01*
X032069Y011472D02*
X024224Y011472D01*
X024224Y011571D02*
X032069Y011571D01*
X032069Y011669D02*
X024224Y011669D01*
X024224Y011768D02*
X032069Y011768D01*
X032069Y011866D02*
X024224Y011866D01*
X024224Y011965D02*
X028513Y011965D01*
X028516Y011963D02*
X028584Y011941D01*
X028654Y011930D01*
X028939Y011930D01*
X028939Y012330D01*
X029039Y012330D01*
X029039Y011930D01*
X029324Y011930D01*
X029394Y011941D01*
X029462Y011963D01*
X029525Y011995D01*
X029582Y012037D01*
X029632Y012087D01*
X029674Y012144D01*
X029706Y012207D01*
X029728Y012275D01*
X029737Y012330D01*
X029039Y012330D01*
X029039Y012430D01*
X029737Y012430D01*
X029728Y012486D01*
X029706Y012553D01*
X029674Y012616D01*
X029632Y012673D01*
X029582Y012723D01*
X029525Y012765D01*
X029462Y012797D01*
X029394Y012819D01*
X029324Y012830D01*
X029039Y012830D01*
X029039Y012430D01*
X028939Y012430D01*
X028939Y012330D01*
X028241Y012330D01*
X028250Y012275D01*
X028272Y012207D01*
X028304Y012144D01*
X028346Y012087D01*
X028396Y012037D01*
X028453Y011995D01*
X028516Y011963D01*
X028370Y012063D02*
X026217Y012063D01*
X026238Y012077D02*
X026292Y012132D01*
X026335Y012195D01*
X026364Y012266D01*
X026379Y012342D01*
X026379Y012350D01*
X026019Y012350D01*
X026019Y011990D01*
X026027Y011990D01*
X026103Y012005D01*
X026174Y012035D01*
X026238Y012077D01*
X026312Y012162D02*
X028295Y012162D01*
X028255Y012260D02*
X026361Y012260D01*
X026379Y012410D02*
X026379Y012419D01*
X026364Y012494D01*
X026335Y012565D01*
X026292Y012629D01*
X026238Y012683D01*
X026174Y012726D01*
X026103Y012755D01*
X026027Y012770D01*
X026019Y012770D01*
X026019Y012410D01*
X026379Y012410D01*
X026371Y012457D02*
X028246Y012457D01*
X028241Y012430D02*
X028939Y012430D01*
X028939Y012830D01*
X028654Y012830D01*
X028584Y012819D01*
X028516Y012797D01*
X028453Y012765D01*
X028396Y012723D01*
X028346Y012673D01*
X028304Y012616D01*
X028272Y012553D01*
X028250Y012486D01*
X028241Y012430D01*
X028273Y012556D02*
X026338Y012556D01*
X026266Y012654D02*
X028332Y012654D01*
X028436Y012753D02*
X026109Y012753D01*
X026019Y012753D02*
X025959Y012753D01*
X025959Y012770D02*
X025951Y012770D01*
X025875Y012755D01*
X025804Y012726D01*
X025740Y012683D01*
X025686Y012629D01*
X025643Y012565D01*
X025614Y012494D01*
X025599Y012419D01*
X025599Y012410D01*
X025959Y012410D01*
X025959Y012350D01*
X026019Y012350D01*
X026019Y012410D01*
X025959Y012410D01*
X025959Y012770D01*
X025869Y012753D02*
X024224Y012753D01*
X024224Y012851D02*
X032069Y012851D01*
X032069Y012753D02*
X029542Y012753D01*
X029646Y012654D02*
X032069Y012654D01*
X032069Y012556D02*
X029705Y012556D01*
X029732Y012457D02*
X032069Y012457D01*
X032069Y012359D02*
X029039Y012359D01*
X029039Y012457D02*
X028939Y012457D01*
X028939Y012359D02*
X026019Y012359D01*
X025959Y012359D02*
X024224Y012359D01*
X024224Y012457D02*
X025607Y012457D01*
X025640Y012556D02*
X024224Y012556D01*
X024224Y012654D02*
X025711Y012654D01*
X025959Y012654D02*
X026019Y012654D01*
X026019Y012556D02*
X025959Y012556D01*
X025959Y012457D02*
X026019Y012457D01*
X025959Y012350D02*
X025599Y012350D01*
X025599Y012342D01*
X025614Y012266D01*
X025643Y012195D01*
X025686Y012132D01*
X025740Y012077D01*
X025804Y012035D01*
X025875Y012005D01*
X025951Y011990D01*
X025959Y011990D01*
X025959Y012350D01*
X025959Y012260D02*
X026019Y012260D01*
X026019Y012162D02*
X025959Y012162D01*
X025959Y012063D02*
X026019Y012063D01*
X025761Y012063D02*
X024224Y012063D01*
X024224Y012162D02*
X025666Y012162D01*
X025617Y012260D02*
X024224Y012260D01*
X024224Y012950D02*
X028500Y012950D01*
X028423Y012982D02*
X028595Y012910D01*
X029382Y012910D01*
X029555Y012982D01*
X029687Y013114D01*
X029759Y013287D01*
X029759Y013474D01*
X029687Y013646D01*
X029555Y013779D01*
X029382Y013850D01*
X028595Y013850D01*
X028423Y013779D01*
X028291Y013646D01*
X028219Y013474D01*
X028219Y013287D01*
X028291Y013114D01*
X028423Y012982D01*
X028356Y013048D02*
X026237Y013048D01*
X026221Y013033D02*
X026337Y013148D01*
X026399Y013299D01*
X026399Y013462D01*
X026337Y013612D01*
X026221Y013728D01*
X026071Y013790D01*
X025907Y013790D01*
X025757Y013728D01*
X025641Y013612D01*
X025579Y013462D01*
X025579Y013299D01*
X025641Y013148D01*
X025757Y013033D01*
X025907Y012970D01*
X026071Y012970D01*
X026221Y013033D01*
X026335Y013147D02*
X028277Y013147D01*
X028236Y013245D02*
X026377Y013245D01*
X026399Y013344D02*
X028219Y013344D01*
X028219Y013442D02*
X026399Y013442D01*
X026366Y013541D02*
X028247Y013541D01*
X028288Y013639D02*
X026310Y013639D01*
X026197Y013738D02*
X028382Y013738D01*
X028562Y013836D02*
X024224Y013836D01*
X024224Y013738D02*
X025781Y013738D01*
X025668Y013639D02*
X024224Y013639D01*
X024224Y013541D02*
X025612Y013541D01*
X025579Y013442D02*
X024224Y013442D01*
X024224Y013344D02*
X025579Y013344D01*
X025601Y013245D02*
X024224Y013245D01*
X024224Y013147D02*
X025643Y013147D01*
X025741Y013048D02*
X024224Y013048D01*
X022931Y012654D02*
X021224Y012654D01*
X021224Y012556D02*
X022832Y012556D01*
X022734Y012457D02*
X021224Y012457D01*
X021224Y012359D02*
X022635Y012359D01*
X022537Y012260D02*
X021224Y012260D01*
X021224Y012162D02*
X022438Y012162D01*
X022340Y012063D02*
X021224Y012063D01*
X021224Y011965D02*
X022241Y011965D01*
X022143Y011866D02*
X021224Y011866D01*
X021224Y011768D02*
X022044Y011768D01*
X021946Y011669D02*
X021224Y011669D01*
X021224Y011571D02*
X021847Y011571D01*
X021749Y011472D02*
X021224Y011472D01*
X021224Y011374D02*
X021650Y011374D01*
X021552Y011275D02*
X021216Y011275D01*
X021118Y011177D02*
X021453Y011177D01*
X021355Y011078D02*
X021019Y011078D01*
X021192Y010980D02*
X021256Y010980D01*
X020749Y011472D02*
X019224Y011472D01*
X019224Y011374D02*
X020650Y011374D01*
X020552Y011275D02*
X019224Y011275D01*
X019224Y011177D02*
X020453Y011177D01*
X020355Y011078D02*
X019224Y011078D01*
X019224Y010980D02*
X019786Y010980D01*
X019670Y010881D02*
X019224Y010881D01*
X019224Y010783D02*
X019613Y010783D01*
X019579Y010684D02*
X019224Y010684D01*
X019224Y010586D02*
X019579Y010586D01*
X019579Y010487D02*
X019224Y010487D01*
X019224Y010389D02*
X019579Y010389D01*
X019567Y010290D02*
X019224Y010290D01*
X019224Y010192D02*
X019468Y010192D01*
X019370Y010093D02*
X019224Y010093D01*
X019224Y009995D02*
X019271Y009995D01*
X019254Y009896D02*
X019224Y009896D01*
X019224Y009798D02*
X019254Y009798D01*
X019254Y009699D02*
X019224Y009699D01*
X019224Y009601D02*
X019254Y009601D01*
X019254Y009502D02*
X019224Y009502D01*
X019224Y009404D02*
X019254Y009404D01*
X019254Y009305D02*
X019224Y009305D01*
X019224Y009207D02*
X019254Y009207D01*
X019254Y009108D02*
X019224Y009108D01*
X019224Y009010D02*
X019254Y009010D01*
X019254Y008911D02*
X019224Y008911D01*
X019224Y008813D02*
X019254Y008813D01*
X019254Y008714D02*
X019224Y008714D01*
X019224Y008616D02*
X019254Y008616D01*
X019254Y008517D02*
X019224Y008517D01*
X019224Y008419D02*
X019254Y008419D01*
X019254Y008320D02*
X019224Y008320D01*
X019224Y008222D02*
X019315Y008222D01*
X019224Y008123D02*
X019414Y008123D01*
X019512Y008025D02*
X019224Y008025D01*
X019224Y007926D02*
X019519Y007926D01*
X019519Y007828D02*
X019224Y007828D01*
X019224Y007729D02*
X019519Y007729D01*
X019574Y007631D02*
X019224Y007631D01*
X019224Y007532D02*
X019672Y007532D01*
X019771Y007434D02*
X019224Y007434D01*
X019224Y007335D02*
X020779Y007335D01*
X020771Y007434D02*
X020207Y007434D01*
X020175Y007330D02*
X020039Y007330D01*
X020039Y006930D01*
X020439Y006930D01*
X020439Y007067D01*
X020175Y007330D01*
X020269Y007237D02*
X020681Y007237D01*
X020582Y007138D02*
X020367Y007138D01*
X020439Y007040D02*
X020519Y007040D01*
X020519Y006941D02*
X020439Y006941D01*
X020439Y006830D02*
X020039Y006830D01*
X020039Y006430D01*
X020175Y006430D01*
X020439Y006694D01*
X020439Y006830D01*
X020519Y006843D02*
X020039Y006843D01*
X020039Y006830D02*
X020039Y006930D01*
X019939Y006930D01*
X019939Y006830D01*
X020039Y006830D01*
X020039Y006744D02*
X019939Y006744D01*
X019939Y006830D02*
X019939Y006430D01*
X019803Y006430D01*
X019539Y006694D01*
X019539Y006830D01*
X019939Y006830D01*
X019939Y006843D02*
X019224Y006843D01*
X019224Y006941D02*
X019539Y006941D01*
X019539Y006930D02*
X019939Y006930D01*
X019939Y007330D01*
X019803Y007330D01*
X019539Y007067D01*
X019539Y006930D01*
X019539Y007040D02*
X019224Y007040D01*
X019224Y007138D02*
X019611Y007138D01*
X019709Y007237D02*
X019224Y007237D01*
X018754Y007237D02*
X004909Y007237D01*
X004909Y007335D02*
X018754Y007335D01*
X018754Y007434D02*
X004909Y007434D01*
X004909Y007532D02*
X018754Y007532D01*
X018754Y007631D02*
X004909Y007631D01*
X004909Y007729D02*
X018754Y007729D01*
X018754Y007828D02*
X004909Y007828D01*
X004909Y007926D02*
X018754Y007926D01*
X018754Y008025D02*
X004909Y008025D01*
X004909Y008123D02*
X018754Y008123D01*
X018754Y008222D02*
X004909Y008222D01*
X004909Y008320D02*
X018754Y008320D01*
X018754Y008419D02*
X004909Y008419D01*
X004909Y008517D02*
X011207Y008517D01*
X011231Y008494D02*
X011398Y008424D01*
X011580Y008424D01*
X011747Y008494D01*
X011875Y008622D01*
X011945Y008789D01*
X011945Y008971D01*
X011875Y009138D01*
X011747Y009267D01*
X011580Y009336D01*
X011398Y009336D01*
X011231Y009267D01*
X011102Y009138D01*
X011033Y008971D01*
X011033Y008789D01*
X011102Y008622D01*
X011231Y008494D01*
X011109Y008616D02*
X004909Y008616D01*
X004909Y008714D02*
X011064Y008714D01*
X011033Y008813D02*
X004909Y008813D01*
X004909Y008911D02*
X011033Y008911D01*
X011049Y009010D02*
X004909Y009010D01*
X004909Y009108D02*
X011090Y009108D01*
X011171Y009207D02*
X004909Y009207D01*
X004909Y009305D02*
X011324Y009305D01*
X011654Y009305D02*
X014324Y009305D01*
X014398Y009336D02*
X014231Y009267D01*
X014102Y009138D01*
X014033Y008971D01*
X014033Y008789D01*
X014102Y008622D01*
X014231Y008494D01*
X014398Y008424D01*
X014580Y008424D01*
X014747Y008494D01*
X014875Y008622D01*
X014945Y008789D01*
X014945Y008971D01*
X014875Y009138D01*
X014747Y009267D01*
X014580Y009336D01*
X014398Y009336D01*
X014654Y009305D02*
X018754Y009305D01*
X018754Y009207D02*
X014807Y009207D01*
X014888Y009108D02*
X018754Y009108D01*
X018754Y009010D02*
X014929Y009010D01*
X014945Y008911D02*
X018754Y008911D01*
X018754Y008813D02*
X014945Y008813D01*
X014914Y008714D02*
X018754Y008714D01*
X018754Y008616D02*
X014869Y008616D01*
X014771Y008517D02*
X018754Y008517D01*
X019724Y008517D02*
X020254Y008517D01*
X020254Y008419D02*
X019783Y008419D01*
X019724Y008616D02*
X020254Y008616D01*
X020254Y008714D02*
X019724Y008714D01*
X019724Y008813D02*
X020254Y008813D01*
X020254Y008911D02*
X019724Y008911D01*
X019724Y009010D02*
X020254Y009010D01*
X020254Y009108D02*
X019724Y009108D01*
X019724Y009207D02*
X020254Y009207D01*
X020254Y009305D02*
X019724Y009305D01*
X019724Y009404D02*
X020254Y009404D01*
X020254Y009502D02*
X019724Y009502D01*
X019724Y009601D02*
X020254Y009601D01*
X020254Y009699D02*
X019724Y009699D01*
X019739Y009798D02*
X019752Y009798D01*
X020226Y009798D02*
X020254Y009798D01*
X021724Y009798D02*
X021752Y009798D01*
X021724Y009699D02*
X023838Y009699D01*
X023754Y009798D02*
X023178Y009798D01*
X023295Y009896D02*
X023754Y009896D01*
X023754Y009995D02*
X023351Y009995D01*
X023377Y010093D02*
X023754Y010093D01*
X023754Y010192D02*
X023379Y010192D01*
X023379Y010290D02*
X023754Y010290D01*
X024224Y010290D02*
X024616Y010290D01*
X024579Y010192D02*
X024224Y010192D01*
X024224Y010389D02*
X024678Y010389D01*
X024804Y010487D02*
X024224Y010487D01*
X024224Y010586D02*
X032069Y010586D01*
X032069Y010684D02*
X024224Y010684D01*
X024224Y010783D02*
X032069Y010783D01*
X032069Y010881D02*
X024224Y010881D01*
X025174Y010487D02*
X025804Y010487D01*
X025757Y010468D02*
X025907Y010530D01*
X026071Y010530D01*
X026221Y010468D01*
X026337Y010352D01*
X026399Y010202D01*
X026399Y009559D01*
X026337Y009408D01*
X026221Y009293D01*
X026071Y009230D01*
X025907Y009230D01*
X025757Y009293D01*
X025641Y009408D01*
X025579Y009559D01*
X025579Y010202D01*
X025641Y010352D01*
X025757Y010468D01*
X025678Y010389D02*
X025300Y010389D01*
X025362Y010290D02*
X025616Y010290D01*
X025579Y010192D02*
X025399Y010192D01*
X025399Y010093D02*
X025579Y010093D01*
X025579Y009995D02*
X025399Y009995D01*
X025399Y009896D02*
X025579Y009896D01*
X025579Y009798D02*
X025399Y009798D01*
X025399Y009699D02*
X025579Y009699D01*
X025579Y009601D02*
X025399Y009601D01*
X025376Y009502D02*
X025602Y009502D01*
X025646Y009404D02*
X025332Y009404D01*
X025234Y009305D02*
X025744Y009305D01*
X026234Y009305D02*
X026788Y009305D01*
X026804Y009295D02*
X026740Y009337D01*
X026686Y009392D01*
X026643Y009455D01*
X026614Y009526D01*
X026599Y009602D01*
X026599Y009850D01*
X026959Y009850D01*
X027019Y009850D01*
X027019Y009250D01*
X027027Y009250D01*
X027103Y009265D01*
X027174Y009295D01*
X027238Y009337D01*
X027292Y009392D01*
X027335Y009455D01*
X027364Y009526D01*
X027379Y009602D01*
X027379Y009850D01*
X027019Y009850D01*
X027019Y009910D01*
X027379Y009910D01*
X027379Y010159D01*
X027364Y010234D01*
X027335Y010305D01*
X027292Y010369D01*
X027238Y010423D01*
X027174Y010466D01*
X027103Y010495D01*
X027027Y010510D01*
X027019Y010510D01*
X027019Y009910D01*
X026959Y009910D01*
X026959Y009850D01*
X026959Y009250D01*
X026951Y009250D01*
X026875Y009265D01*
X026804Y009295D01*
X026959Y009305D02*
X027019Y009305D01*
X027019Y009404D02*
X026959Y009404D01*
X026959Y009502D02*
X027019Y009502D01*
X027019Y009601D02*
X026959Y009601D01*
X026959Y009699D02*
X027019Y009699D01*
X027019Y009798D02*
X026959Y009798D01*
X026959Y009896D02*
X026399Y009896D01*
X026399Y009798D02*
X026599Y009798D01*
X026599Y009699D02*
X026399Y009699D01*
X026399Y009601D02*
X026599Y009601D01*
X026624Y009502D02*
X026376Y009502D01*
X026332Y009404D02*
X026678Y009404D01*
X027190Y009305D02*
X032069Y009305D01*
X032069Y009207D02*
X021724Y009207D01*
X021724Y009305D02*
X024744Y009305D01*
X024646Y009404D02*
X021724Y009404D01*
X021724Y009502D02*
X024602Y009502D01*
X024579Y009601D02*
X021724Y009601D01*
X021724Y009108D02*
X032069Y009108D01*
X032069Y009010D02*
X021724Y009010D01*
X021724Y008911D02*
X032069Y008911D01*
X032069Y008813D02*
X021724Y008813D01*
X021724Y008714D02*
X032069Y008714D01*
X032069Y008616D02*
X021724Y008616D01*
X021724Y008517D02*
X032069Y008517D01*
X032069Y008419D02*
X028100Y008419D01*
X028096Y008420D02*
X027882Y008420D01*
X027683Y008338D01*
X027531Y008186D01*
X027449Y007988D01*
X027449Y007773D01*
X027531Y007574D01*
X027683Y007422D01*
X027882Y007340D01*
X028096Y007340D01*
X028295Y007422D01*
X028447Y007574D01*
X028529Y007773D01*
X028529Y007988D01*
X028447Y008186D01*
X028295Y008338D01*
X028096Y008420D01*
X027878Y008419D02*
X024100Y008419D01*
X024096Y008420D02*
X023882Y008420D01*
X023683Y008338D01*
X023531Y008186D01*
X023449Y007988D01*
X023449Y007773D01*
X023531Y007574D01*
X023683Y007422D01*
X023882Y007340D01*
X024096Y007340D01*
X024295Y007422D01*
X024447Y007574D01*
X024529Y007773D01*
X024529Y007988D01*
X024447Y008186D01*
X024295Y008338D01*
X024096Y008420D01*
X023878Y008419D02*
X021724Y008419D01*
X022389Y008320D02*
X023665Y008320D01*
X023567Y008222D02*
X022459Y008222D01*
X022459Y008123D02*
X023505Y008123D01*
X023464Y008025D02*
X022459Y008025D01*
X022459Y007926D02*
X023449Y007926D01*
X023449Y007828D02*
X022459Y007828D01*
X022459Y007729D02*
X023467Y007729D01*
X023508Y007631D02*
X022459Y007631D01*
X022459Y007532D02*
X023573Y007532D01*
X023672Y007434D02*
X022383Y007434D01*
X022199Y007335D02*
X032069Y007335D01*
X032069Y007237D02*
X022297Y007237D01*
X022396Y007138D02*
X032069Y007138D01*
X032069Y007040D02*
X022459Y007040D01*
X022459Y006941D02*
X032069Y006941D01*
X032069Y006843D02*
X028283Y006843D01*
X028295Y006838D02*
X028096Y006920D01*
X027882Y006920D01*
X027683Y006838D01*
X027531Y006686D01*
X027449Y006488D01*
X027449Y006273D01*
X027531Y006074D01*
X027683Y005922D01*
X027882Y005840D01*
X028096Y005840D01*
X028295Y005922D01*
X028447Y006074D01*
X028529Y006273D01*
X028529Y006488D01*
X028447Y006686D01*
X028295Y006838D01*
X028389Y006744D02*
X032069Y006744D01*
X032069Y006646D02*
X028463Y006646D01*
X028504Y006547D02*
X032069Y006547D01*
X032069Y006449D02*
X028529Y006449D01*
X028529Y006350D02*
X032069Y006350D01*
X032069Y006342D02*
X030757Y006342D01*
X030752Y006346D01*
X030688Y006342D01*
X030623Y006342D01*
X030618Y006337D01*
X030570Y006333D01*
X030558Y006341D01*
X030501Y006328D01*
X030443Y006324D01*
X030434Y006314D01*
X030380Y006302D01*
X030368Y006308D01*
X030313Y006287D01*
X030256Y006275D01*
X030249Y006263D01*
X030197Y006244D01*
X030183Y006248D01*
X030132Y006220D01*
X030078Y006199D01*
X030072Y006187D01*
X030023Y006160D01*
X030010Y006162D01*
X029963Y006127D01*
X029912Y006099D01*
X029908Y006086D01*
X029864Y006053D01*
X029850Y006053D01*
X029809Y006012D01*
X029762Y005977D01*
X029760Y005963D01*
X029721Y005924D01*
X029707Y005922D01*
X029672Y005875D01*
X029631Y005834D01*
X029631Y005820D01*
X029598Y005776D01*
X029585Y005772D01*
X029557Y005721D01*
X029522Y005674D01*
X029524Y005661D01*
X029497Y005612D01*
X029485Y005606D01*
X029464Y005552D01*
X029436Y005501D01*
X029440Y005487D01*
X029421Y005436D01*
X029409Y005428D01*
X029397Y005371D01*
X029377Y005317D01*
X029382Y005304D01*
X029371Y005250D01*
X029360Y005241D01*
X029356Y005183D01*
X029344Y005126D01*
X029351Y005114D01*
X029348Y005066D01*
X029343Y005061D01*
X029343Y004996D01*
X029338Y004932D01*
X029343Y004927D01*
X029343Y003616D01*
X007635Y003616D01*
X007635Y004927D01*
X007640Y004932D01*
X007635Y004996D01*
X007635Y005061D01*
X007630Y005066D01*
X007627Y005114D01*
X007634Y005126D01*
X007622Y005183D01*
X007618Y005241D01*
X007607Y005250D01*
X007596Y005304D01*
X007601Y005317D01*
X007581Y005371D01*
X007569Y005428D01*
X007557Y005436D01*
X007538Y005487D01*
X007542Y005501D01*
X007514Y005552D01*
X007493Y005606D01*
X007481Y005612D01*
X007454Y005661D01*
X007456Y005674D01*
X007421Y005721D01*
X007393Y005772D01*
X007380Y005776D01*
X007347Y005820D01*
X007347Y005834D01*
X007306Y005875D01*
X007271Y005922D01*
X007257Y005924D01*
X007218Y005963D01*
X007216Y005977D01*
X007169Y006012D01*
X007128Y006053D01*
X007114Y006053D01*
X007070Y006086D01*
X007066Y006099D01*
X007015Y006127D01*
X006968Y006162D01*
X006955Y006160D01*
X006906Y006187D01*
X006900Y006199D01*
X006846Y006220D01*
X006795Y006248D01*
X006781Y006244D01*
X006729Y006263D01*
X006722Y006275D01*
X006665Y006287D01*
X006610Y006308D01*
X006598Y006302D01*
X006544Y006314D01*
X006535Y006324D01*
X006477Y006328D01*
X006420Y006341D01*
X006408Y006333D01*
X006360Y006337D01*
X006355Y006342D01*
X006290Y006342D01*
X006226Y006346D01*
X006221Y006342D01*
X004909Y006342D01*
X004909Y017419D01*
X006221Y017419D01*
X006226Y017414D01*
X006290Y017419D01*
X006355Y017419D01*
X006360Y017424D01*
X006408Y017427D01*
X006420Y017420D01*
X006477Y017432D01*
X006535Y017436D01*
X006544Y017447D01*
X006598Y017459D01*
X006610Y017453D01*
X006665Y017473D01*
X006722Y017486D01*
X006729Y017497D01*
X006781Y017517D01*
X006795Y017513D01*
X006846Y017541D01*
X006900Y017561D01*
X006906Y017573D01*
X006955Y017600D01*
X006968Y017598D01*
X007015Y017633D01*
X007066Y017661D01*
X007070Y017674D01*
X007114Y017707D01*
X007128Y017707D01*
X007169Y017749D01*
X007216Y017783D01*
X007218Y017797D01*
X007257Y017836D01*
X007271Y017838D01*
X007306Y017885D01*
X007347Y017926D01*
X007347Y017940D01*
X007380Y017984D01*
X007393Y017988D01*
X007421Y018039D01*
X007456Y018086D01*
X007454Y018100D01*
X007481Y018148D01*
X007493Y018154D01*
X007514Y018208D01*
X007542Y018260D01*
X007538Y018273D01*
X007557Y018325D01*
X007569Y018332D01*
X007581Y018389D01*
X007601Y018444D01*
X007596Y018456D01*
X007607Y018510D01*
X007618Y018519D01*
X007622Y018578D01*
X007634Y018635D01*
X007627Y018646D01*
X007630Y018695D01*
X007635Y018700D01*
X007635Y018764D01*
X007640Y018828D01*
X007635Y018833D01*
X007635Y020145D01*
X029343Y020145D01*
X029343Y018833D01*
X029338Y018828D01*
X029343Y018764D01*
X029343Y018700D01*
X029348Y018695D01*
X029351Y018646D01*
X029344Y018635D01*
X029356Y018578D01*
X029360Y018519D01*
X029371Y018510D01*
X029382Y018456D01*
X029377Y018444D01*
X029397Y018389D01*
X029409Y018332D01*
X029421Y018325D01*
X029440Y018273D01*
X029436Y018260D01*
X029464Y018208D01*
X029485Y018154D01*
X029497Y018148D01*
X029524Y018100D01*
X029522Y018086D01*
X029557Y018039D01*
X029585Y017988D01*
X029598Y017984D01*
X029631Y017940D01*
X029631Y017926D01*
X029672Y017885D01*
X029707Y017838D01*
X029721Y017836D01*
X029760Y017797D01*
X029762Y017783D01*
X029809Y017749D01*
X029850Y017707D01*
X029864Y017707D01*
X029908Y017674D01*
X029912Y017661D01*
X029963Y017633D01*
X030010Y017598D01*
X030023Y017600D01*
X030072Y017573D01*
X030078Y017561D01*
X030132Y017541D01*
X030183Y017513D01*
X030197Y017517D01*
X030249Y017497D01*
X030256Y017486D01*
X030313Y017473D01*
X030368Y017453D01*
X030380Y017459D01*
X030434Y017447D01*
X030443Y017436D01*
X030501Y017432D01*
X030558Y017420D01*
X030570Y017427D01*
X030618Y017424D01*
X030623Y017419D01*
X030688Y017419D01*
X030752Y017414D01*
X030757Y017419D01*
X032069Y017419D01*
X032069Y006342D01*
X032069Y007434D02*
X028306Y007434D01*
X028405Y007532D02*
X032069Y007532D01*
X032069Y007631D02*
X028470Y007631D01*
X028511Y007729D02*
X032069Y007729D01*
X032069Y007828D02*
X028529Y007828D01*
X028529Y007926D02*
X032069Y007926D01*
X032069Y008025D02*
X028514Y008025D01*
X028473Y008123D02*
X032069Y008123D01*
X032069Y008222D02*
X028411Y008222D01*
X028313Y008320D02*
X032069Y008320D01*
X032069Y009404D02*
X027300Y009404D01*
X027354Y009502D02*
X032069Y009502D01*
X032069Y009601D02*
X027379Y009601D01*
X027379Y009699D02*
X032069Y009699D01*
X032069Y009798D02*
X027379Y009798D01*
X027379Y009995D02*
X032069Y009995D01*
X032069Y010093D02*
X027379Y010093D01*
X027372Y010192D02*
X032069Y010192D01*
X032069Y010290D02*
X027341Y010290D01*
X027272Y010389D02*
X032069Y010389D01*
X032069Y010487D02*
X027122Y010487D01*
X027019Y010487D02*
X026959Y010487D01*
X026959Y010510D02*
X026951Y010510D01*
X026875Y010495D01*
X026804Y010466D01*
X026740Y010423D01*
X026686Y010369D01*
X026643Y010305D01*
X026614Y010234D01*
X026599Y010159D01*
X026599Y009910D01*
X026959Y009910D01*
X026959Y010510D01*
X026856Y010487D02*
X026174Y010487D01*
X026300Y010389D02*
X026706Y010389D01*
X026637Y010290D02*
X026362Y010290D01*
X026399Y010192D02*
X026606Y010192D01*
X026599Y010093D02*
X026399Y010093D01*
X026399Y009995D02*
X026599Y009995D01*
X026959Y009995D02*
X027019Y009995D01*
X027019Y010093D02*
X026959Y010093D01*
X026959Y010192D02*
X027019Y010192D01*
X027019Y010290D02*
X026959Y010290D01*
X026959Y010389D02*
X027019Y010389D01*
X027019Y009896D02*
X032069Y009896D01*
X032069Y011965D02*
X029465Y011965D01*
X029608Y012063D02*
X032069Y012063D01*
X032069Y012162D02*
X029683Y012162D01*
X029723Y012260D02*
X032069Y012260D01*
X032069Y012950D02*
X029478Y012950D01*
X029622Y013048D02*
X032069Y013048D01*
X032069Y013147D02*
X029701Y013147D01*
X029742Y013245D02*
X032069Y013245D01*
X032069Y013344D02*
X029759Y013344D01*
X029759Y013442D02*
X032069Y013442D01*
X032069Y013541D02*
X029731Y013541D01*
X029690Y013639D02*
X032069Y013639D01*
X032069Y013738D02*
X029596Y013738D01*
X029416Y013836D02*
X032069Y013836D01*
X032069Y013935D02*
X024224Y013935D01*
X024224Y014033D02*
X032069Y014033D01*
X032069Y014132D02*
X024224Y014132D01*
X024224Y014230D02*
X032069Y014230D01*
X032069Y014329D02*
X024224Y014329D01*
X024224Y014427D02*
X032069Y014427D01*
X032069Y014526D02*
X024224Y014526D01*
X024224Y014624D02*
X032069Y014624D01*
X032069Y014723D02*
X024224Y014723D01*
X024224Y014821D02*
X032069Y014821D01*
X032069Y014920D02*
X028288Y014920D01*
X028295Y014922D02*
X028447Y015074D01*
X028529Y015273D01*
X028529Y015488D01*
X028447Y015686D01*
X028295Y015838D01*
X028096Y015920D01*
X027882Y015920D01*
X027683Y015838D01*
X027531Y015686D01*
X027449Y015488D01*
X027449Y015273D01*
X027531Y015074D01*
X027683Y014922D01*
X027882Y014840D01*
X028096Y014840D01*
X028295Y014922D01*
X028391Y015018D02*
X032069Y015018D01*
X032069Y015117D02*
X028464Y015117D01*
X028505Y015215D02*
X032069Y015215D01*
X032069Y015314D02*
X028529Y015314D01*
X028529Y015412D02*
X032069Y015412D01*
X032069Y015511D02*
X028519Y015511D01*
X028479Y015609D02*
X032069Y015609D01*
X032069Y015708D02*
X028425Y015708D01*
X028327Y015806D02*
X032069Y015806D01*
X032069Y015905D02*
X028134Y015905D01*
X027844Y015905D02*
X024224Y015905D01*
X024224Y016003D02*
X032069Y016003D01*
X032069Y016102D02*
X024224Y016102D01*
X024224Y016200D02*
X032069Y016200D01*
X032069Y016299D02*
X024224Y016299D01*
X024224Y016397D02*
X032069Y016397D01*
X032069Y016496D02*
X024569Y016496D01*
X024668Y016594D02*
X032069Y016594D01*
X032069Y016693D02*
X024720Y016693D01*
X024759Y016791D02*
X032069Y016791D01*
X032069Y016890D02*
X024759Y016890D01*
X024753Y016988D02*
X025771Y016988D01*
X025737Y017002D02*
X025900Y016935D01*
X026078Y016935D01*
X026241Y017002D01*
X026367Y017128D01*
X026435Y017292D01*
X026435Y017469D01*
X026367Y017633D01*
X026241Y017758D01*
X026078Y017826D01*
X025900Y017826D01*
X025737Y017758D01*
X025611Y017633D01*
X025543Y017469D01*
X025543Y017292D01*
X025611Y017128D01*
X025737Y017002D01*
X025652Y017087D02*
X024712Y017087D01*
X024649Y017185D02*
X025587Y017185D01*
X025547Y017284D02*
X024543Y017284D01*
X023714Y017678D02*
X025656Y017678D01*
X025589Y017579D02*
X023653Y017579D01*
X023553Y017481D02*
X025548Y017481D01*
X025543Y017382D02*
X023224Y017382D01*
X023224Y017284D02*
X023435Y017284D01*
X023329Y017185D02*
X023224Y017185D01*
X023224Y017087D02*
X023266Y017087D01*
X023224Y016988D02*
X023225Y016988D01*
X023224Y016693D02*
X023258Y016693D01*
X023224Y016594D02*
X023310Y016594D01*
X023224Y016496D02*
X023409Y016496D01*
X023224Y016397D02*
X023754Y016397D01*
X023754Y016299D02*
X023224Y016299D01*
X023224Y016200D02*
X023754Y016200D01*
X023754Y016102D02*
X023224Y016102D01*
X023224Y016003D02*
X023754Y016003D01*
X023754Y015905D02*
X023224Y015905D01*
X023224Y015806D02*
X023651Y015806D01*
X023553Y015708D02*
X023224Y015708D01*
X023224Y015609D02*
X023499Y015609D01*
X023459Y015511D02*
X023224Y015511D01*
X023224Y015412D02*
X023449Y015412D01*
X023449Y015314D02*
X023224Y015314D01*
X023224Y015215D02*
X023473Y015215D01*
X023514Y015117D02*
X023224Y015117D01*
X023224Y015018D02*
X023587Y015018D01*
X023690Y014920D02*
X023282Y014920D01*
X023380Y014821D02*
X023754Y014821D01*
X023754Y014723D02*
X023479Y014723D01*
X023577Y014624D02*
X023754Y014624D01*
X023754Y014526D02*
X023676Y014526D01*
X023724Y014427D02*
X023754Y014427D01*
X023754Y014329D02*
X023724Y014329D01*
X023724Y014230D02*
X023754Y014230D01*
X023754Y014132D02*
X023724Y014132D01*
X024288Y014920D02*
X027690Y014920D01*
X027587Y015018D02*
X024391Y015018D01*
X024464Y015117D02*
X027514Y015117D01*
X027473Y015215D02*
X024505Y015215D01*
X024529Y015314D02*
X027449Y015314D01*
X027449Y015412D02*
X024529Y015412D01*
X024519Y015511D02*
X027459Y015511D01*
X027499Y015609D02*
X024479Y015609D01*
X024425Y015708D02*
X027553Y015708D01*
X027651Y015806D02*
X024327Y015806D01*
X022754Y016496D02*
X022569Y016496D01*
X022668Y016594D02*
X022754Y016594D01*
X022754Y016693D02*
X022720Y016693D01*
X022753Y016988D02*
X022754Y016988D01*
X022754Y017087D02*
X022712Y017087D01*
X022754Y017185D02*
X022649Y017185D01*
X022754Y017284D02*
X022543Y017284D01*
X022425Y017481D02*
X020537Y017481D01*
X020636Y017579D02*
X022325Y017579D01*
X022264Y017678D02*
X020659Y017678D01*
X020659Y017603D02*
X020266Y017210D01*
X019711Y017210D01*
X019319Y017603D01*
X019319Y018158D01*
X019711Y018550D01*
X020266Y018550D01*
X020659Y018158D01*
X020659Y017603D01*
X020659Y017776D02*
X022223Y017776D01*
X022219Y017875D02*
X020659Y017875D01*
X020659Y017973D02*
X022219Y017973D01*
X022260Y018072D02*
X020659Y018072D01*
X020646Y018170D02*
X022314Y018170D01*
X022413Y018269D02*
X020548Y018269D01*
X020449Y018367D02*
X029402Y018367D01*
X029380Y018466D02*
X020351Y018466D01*
X019627Y018466D02*
X007598Y018466D01*
X007621Y018564D02*
X029357Y018564D01*
X029350Y018663D02*
X007628Y018663D01*
X007635Y018761D02*
X029343Y018761D01*
X029343Y018860D02*
X007635Y018860D01*
X007635Y018958D02*
X029343Y018958D01*
X029343Y019057D02*
X007635Y019057D01*
X007635Y019155D02*
X029343Y019155D01*
X029343Y019254D02*
X007635Y019254D01*
X007635Y019352D02*
X029343Y019352D01*
X029343Y019451D02*
X007635Y019451D01*
X007635Y019549D02*
X029343Y019549D01*
X029343Y019648D02*
X007635Y019648D01*
X007635Y019746D02*
X029343Y019746D01*
X029343Y019845D02*
X007635Y019845D01*
X007635Y019943D02*
X029343Y019943D01*
X029343Y020042D02*
X007635Y020042D01*
X007635Y020140D02*
X029343Y020140D01*
X029439Y018269D02*
X023565Y018269D01*
X023664Y018170D02*
X029479Y018170D01*
X029532Y018072D02*
X023718Y018072D01*
X023759Y017973D02*
X029606Y017973D01*
X029680Y017875D02*
X023759Y017875D01*
X023755Y017776D02*
X025781Y017776D01*
X026197Y017776D02*
X026781Y017776D01*
X026737Y017758D02*
X026611Y017633D01*
X026543Y017469D01*
X026543Y017292D01*
X026611Y017128D01*
X026737Y017002D01*
X026900Y016935D01*
X027078Y016935D01*
X027241Y017002D01*
X027367Y017128D01*
X027435Y017292D01*
X027435Y017469D01*
X027367Y017633D01*
X027241Y017758D01*
X027078Y017826D01*
X026900Y017826D01*
X026737Y017758D01*
X026656Y017678D02*
X026322Y017678D01*
X026389Y017579D02*
X026589Y017579D01*
X026548Y017481D02*
X026430Y017481D01*
X026435Y017382D02*
X026543Y017382D01*
X026547Y017284D02*
X026431Y017284D01*
X026391Y017185D02*
X026587Y017185D01*
X026652Y017087D02*
X026326Y017087D01*
X026207Y016988D02*
X026771Y016988D01*
X027207Y016988D02*
X032069Y016988D01*
X032069Y017087D02*
X027326Y017087D01*
X027391Y017185D02*
X032069Y017185D01*
X032069Y017284D02*
X027431Y017284D01*
X027435Y017382D02*
X032069Y017382D01*
X030278Y017481D02*
X027430Y017481D01*
X027389Y017579D02*
X030061Y017579D01*
X029903Y017678D02*
X027322Y017678D01*
X027197Y017776D02*
X029772Y017776D01*
X022754Y017382D02*
X020439Y017382D01*
X020340Y017284D02*
X021435Y017284D01*
X021329Y017185D02*
X004909Y017185D01*
X004909Y017087D02*
X021266Y017087D01*
X021225Y016988D02*
X020300Y016988D01*
X020258Y017030D02*
X020039Y017030D01*
X020039Y016430D01*
X020639Y016430D01*
X020639Y016649D01*
X020258Y017030D01*
X020399Y016890D02*
X021219Y016890D01*
X021219Y016791D02*
X020497Y016791D01*
X020596Y016693D02*
X021258Y016693D01*
X021310Y016594D02*
X020639Y016594D01*
X020639Y016496D02*
X021409Y016496D01*
X021575Y016299D02*
X020639Y016299D01*
X020639Y016330D02*
X020039Y016330D01*
X020039Y015730D01*
X020258Y015730D01*
X020639Y016111D01*
X020639Y016330D01*
X020639Y016200D02*
X021477Y016200D01*
X021378Y016102D02*
X020630Y016102D01*
X020531Y016003D02*
X021280Y016003D01*
X021181Y015905D02*
X020433Y015905D01*
X020334Y015806D02*
X021083Y015806D01*
X020984Y015708D02*
X004909Y015708D01*
X004909Y015806D02*
X019644Y015806D01*
X019720Y015730D02*
X019939Y015730D01*
X019939Y016330D01*
X020039Y016330D01*
X020039Y016430D01*
X019939Y016430D01*
X019939Y016330D01*
X019339Y016330D01*
X019339Y016111D01*
X019720Y015730D01*
X019939Y015806D02*
X020039Y015806D01*
X020039Y015905D02*
X019939Y015905D01*
X019939Y016003D02*
X020039Y016003D01*
X020039Y016102D02*
X019939Y016102D01*
X019939Y016200D02*
X020039Y016200D01*
X020039Y016299D02*
X019939Y016299D01*
X019939Y016397D02*
X004909Y016397D01*
X004909Y016299D02*
X019339Y016299D01*
X019339Y016200D02*
X004909Y016200D01*
X004909Y016102D02*
X019348Y016102D01*
X019447Y016003D02*
X004909Y016003D01*
X004909Y015905D02*
X019545Y015905D01*
X019339Y016430D02*
X019939Y016430D01*
X019939Y017030D01*
X019720Y017030D01*
X019339Y016649D01*
X019339Y016430D01*
X019339Y016496D02*
X004909Y016496D01*
X004909Y016594D02*
X019339Y016594D01*
X019382Y016693D02*
X004909Y016693D01*
X004909Y016791D02*
X019481Y016791D01*
X019579Y016890D02*
X004909Y016890D01*
X004909Y016988D02*
X019678Y016988D01*
X019939Y016988D02*
X020039Y016988D01*
X020039Y016890D02*
X019939Y016890D01*
X019939Y016791D02*
X020039Y016791D01*
X020039Y016693D02*
X019939Y016693D01*
X019939Y016594D02*
X020039Y016594D01*
X020039Y016496D02*
X019939Y016496D01*
X020039Y016397D02*
X021674Y016397D01*
X020886Y015609D02*
X004909Y015609D01*
X004909Y015511D02*
X020787Y015511D01*
X020689Y015412D02*
X004909Y015412D01*
X004909Y015314D02*
X011344Y015314D01*
X011398Y015336D02*
X011231Y015267D01*
X011102Y015138D01*
X011033Y014971D01*
X011033Y014789D01*
X011102Y014622D01*
X011231Y014494D01*
X011398Y014424D01*
X011580Y014424D01*
X011747Y014494D01*
X011875Y014622D01*
X011945Y014789D01*
X011945Y014971D01*
X011875Y015138D01*
X011747Y015267D01*
X011580Y015336D01*
X011398Y015336D01*
X011634Y015314D02*
X014344Y015314D01*
X014398Y015336D02*
X014231Y015267D01*
X014102Y015138D01*
X014033Y014971D01*
X014033Y014789D01*
X014102Y014622D01*
X014231Y014494D01*
X014398Y014424D01*
X014580Y014424D01*
X014747Y014494D01*
X014875Y014622D01*
X014945Y014789D01*
X014945Y014971D01*
X014875Y015138D01*
X014747Y015267D01*
X014580Y015336D01*
X014398Y015336D01*
X014634Y015314D02*
X020590Y015314D01*
X020492Y015215D02*
X014799Y015215D01*
X014884Y015117D02*
X020393Y015117D01*
X020295Y015018D02*
X014925Y015018D01*
X014945Y014920D02*
X020196Y014920D01*
X020098Y014821D02*
X014945Y014821D01*
X014917Y014723D02*
X019999Y014723D01*
X019901Y014624D02*
X014876Y014624D01*
X014779Y014526D02*
X019802Y014526D01*
X019754Y014427D02*
X014587Y014427D01*
X014391Y014427D02*
X011587Y014427D01*
X011391Y014427D02*
X004909Y014427D01*
X004909Y014329D02*
X019754Y014329D01*
X019754Y014230D02*
X004909Y014230D01*
X004909Y014132D02*
X019754Y014132D01*
X019754Y014033D02*
X004909Y014033D01*
X004909Y013935D02*
X019711Y013935D01*
X019613Y013836D02*
X004909Y013836D01*
X004909Y013738D02*
X019514Y013738D01*
X019416Y013639D02*
X004909Y013639D01*
X004909Y013541D02*
X019317Y013541D01*
X019219Y013442D02*
X004909Y013442D01*
X004909Y013344D02*
X019120Y013344D01*
X019022Y013245D02*
X004909Y013245D01*
X004909Y013147D02*
X018923Y013147D01*
X018825Y013048D02*
X004909Y013048D01*
X004909Y012950D02*
X018754Y012950D01*
X018754Y012851D02*
X004909Y012851D01*
X004909Y012753D02*
X018754Y012753D01*
X018754Y012654D02*
X004909Y012654D01*
X004909Y012556D02*
X018754Y012556D01*
X018754Y012457D02*
X004909Y012457D01*
X004909Y012359D02*
X018754Y012359D01*
X018754Y012260D02*
X004909Y012260D01*
X004909Y012162D02*
X018754Y012162D01*
X018754Y012063D02*
X004909Y012063D01*
X004909Y011965D02*
X018754Y011965D01*
X018754Y011866D02*
X004909Y011866D01*
X004909Y011768D02*
X018754Y011768D01*
X018754Y011669D02*
X004909Y011669D01*
X004909Y011571D02*
X018754Y011571D01*
X018754Y011472D02*
X004909Y011472D01*
X004909Y011374D02*
X018754Y011374D01*
X018754Y011275D02*
X004909Y011275D01*
X004909Y011177D02*
X018754Y011177D01*
X018754Y011078D02*
X004909Y011078D01*
X004909Y010980D02*
X018754Y010980D01*
X018754Y010881D02*
X004909Y010881D01*
X004909Y010783D02*
X018754Y010783D01*
X018754Y010684D02*
X004909Y010684D01*
X004909Y010586D02*
X018754Y010586D01*
X018754Y010487D02*
X004909Y010487D01*
X004909Y010389D02*
X018754Y010389D01*
X018754Y010290D02*
X004909Y010290D01*
X004909Y010192D02*
X018754Y010192D01*
X018754Y010093D02*
X004909Y010093D01*
X004909Y009995D02*
X018754Y009995D01*
X018754Y009896D02*
X004909Y009896D01*
X004909Y009798D02*
X018754Y009798D01*
X018754Y009699D02*
X004909Y009699D01*
X004909Y009601D02*
X018754Y009601D01*
X018754Y009502D02*
X004909Y009502D01*
X004909Y009404D02*
X018754Y009404D01*
X020214Y008320D02*
X020254Y008320D01*
X020312Y008222D02*
X020315Y008222D01*
X020411Y008123D02*
X020414Y008123D01*
X020459Y008025D02*
X020512Y008025D01*
X020519Y007926D02*
X020459Y007926D01*
X020459Y007828D02*
X020519Y007828D01*
X020519Y007729D02*
X020459Y007729D01*
X020404Y007631D02*
X020574Y007631D01*
X020672Y007532D02*
X020306Y007532D01*
X020039Y007237D02*
X019939Y007237D01*
X019939Y007138D02*
X020039Y007138D01*
X020039Y007040D02*
X019939Y007040D01*
X019939Y006941D02*
X020039Y006941D01*
X020039Y006646D02*
X019939Y006646D01*
X019939Y006547D02*
X020039Y006547D01*
X020039Y006449D02*
X019939Y006449D01*
X019784Y006449D02*
X019224Y006449D01*
X019224Y006547D02*
X019686Y006547D01*
X019587Y006646D02*
X019224Y006646D01*
X019224Y006744D02*
X019539Y006744D01*
X019224Y006350D02*
X021127Y006350D01*
X021222Y006449D02*
X021225Y006449D01*
X021321Y006547D02*
X021324Y006547D01*
X021419Y006646D02*
X021422Y006646D01*
X021459Y006744D02*
X021519Y006744D01*
X021519Y006843D02*
X021459Y006843D01*
X021459Y006941D02*
X021519Y006941D01*
X021519Y007040D02*
X021481Y007040D01*
X021579Y007138D02*
X021582Y007138D01*
X021678Y007237D02*
X021681Y007237D01*
X021724Y007335D02*
X021779Y007335D01*
X021210Y007434D02*
X021207Y007434D01*
X020519Y006744D02*
X020439Y006744D01*
X020391Y006646D02*
X020559Y006646D01*
X020657Y006547D02*
X020292Y006547D01*
X020194Y006449D02*
X020756Y006449D01*
X021028Y006252D02*
X019224Y006252D01*
X019224Y006153D02*
X020930Y006153D01*
X021397Y005956D02*
X023649Y005956D01*
X023683Y005922D02*
X023882Y005840D01*
X024096Y005840D01*
X024295Y005922D01*
X024447Y006074D01*
X024529Y006273D01*
X024529Y006488D01*
X024447Y006686D01*
X024295Y006838D01*
X024096Y006920D01*
X023882Y006920D01*
X023683Y006838D01*
X023531Y006686D01*
X023449Y006488D01*
X023449Y006273D01*
X023531Y006074D01*
X023683Y005922D01*
X023839Y005858D02*
X021299Y005858D01*
X021200Y005759D02*
X029578Y005759D01*
X029524Y005661D02*
X021102Y005661D01*
X021496Y006055D02*
X023551Y006055D01*
X023499Y006153D02*
X021594Y006153D01*
X021693Y006252D02*
X023458Y006252D01*
X023449Y006350D02*
X021791Y006350D01*
X022222Y006449D02*
X023449Y006449D01*
X023474Y006547D02*
X022321Y006547D01*
X022419Y006646D02*
X023514Y006646D01*
X023589Y006744D02*
X022459Y006744D01*
X022459Y006843D02*
X023694Y006843D01*
X024283Y006843D02*
X027694Y006843D01*
X027589Y006744D02*
X024389Y006744D01*
X024463Y006646D02*
X027514Y006646D01*
X027474Y006547D02*
X024504Y006547D01*
X024529Y006449D02*
X027449Y006449D01*
X027449Y006350D02*
X024529Y006350D01*
X024520Y006252D02*
X027458Y006252D01*
X027499Y006153D02*
X024479Y006153D01*
X024427Y006055D02*
X027551Y006055D01*
X027649Y005956D02*
X024329Y005956D01*
X024139Y005858D02*
X027839Y005858D01*
X028139Y005858D02*
X029654Y005858D01*
X029753Y005956D02*
X028329Y005956D01*
X028427Y006055D02*
X029866Y006055D01*
X029997Y006153D02*
X028479Y006153D01*
X028520Y006252D02*
X030218Y006252D01*
X029468Y005562D02*
X007510Y005562D01*
X007547Y005464D02*
X029431Y005464D01*
X029395Y005365D02*
X007583Y005365D01*
X007604Y005267D02*
X029374Y005267D01*
X029353Y005168D02*
X007625Y005168D01*
X007630Y005070D02*
X029348Y005070D01*
X029341Y004971D02*
X007637Y004971D01*
X007635Y004873D02*
X029343Y004873D01*
X029343Y004774D02*
X007635Y004774D01*
X007635Y004676D02*
X029343Y004676D01*
X029343Y004577D02*
X007635Y004577D01*
X007635Y004479D02*
X029343Y004479D01*
X029343Y004380D02*
X007635Y004380D01*
X007635Y004282D02*
X029343Y004282D01*
X029343Y004183D02*
X007635Y004183D01*
X007635Y004085D02*
X029343Y004085D01*
X029343Y003986D02*
X007635Y003986D01*
X007635Y003888D02*
X029343Y003888D01*
X029343Y003789D02*
X007635Y003789D01*
X007635Y003691D02*
X029343Y003691D01*
X027672Y007434D02*
X024306Y007434D01*
X024405Y007532D02*
X027573Y007532D01*
X027508Y007631D02*
X024470Y007631D01*
X024511Y007729D02*
X027467Y007729D01*
X027449Y007828D02*
X024529Y007828D01*
X024529Y007926D02*
X027449Y007926D01*
X027464Y008025D02*
X024514Y008025D01*
X024473Y008123D02*
X027505Y008123D01*
X027567Y008222D02*
X024411Y008222D01*
X024313Y008320D02*
X027665Y008320D01*
X023019Y010586D02*
X022959Y010586D01*
X022959Y010684D02*
X023019Y010684D01*
X023019Y010783D02*
X022959Y010783D01*
X022959Y010881D02*
X023019Y010881D01*
X023019Y010980D02*
X022959Y010980D01*
X020754Y011571D02*
X019224Y011571D01*
X019224Y011669D02*
X020754Y011669D01*
X020754Y011768D02*
X019224Y011768D01*
X019224Y011866D02*
X020754Y011866D01*
X020754Y011965D02*
X019224Y011965D01*
X019224Y012063D02*
X020754Y012063D01*
X020754Y012162D02*
X019224Y012162D01*
X019224Y012260D02*
X020754Y012260D01*
X020754Y012359D02*
X019224Y012359D01*
X019224Y012457D02*
X020754Y012457D01*
X020754Y012556D02*
X019224Y012556D01*
X019224Y012654D02*
X020754Y012654D01*
X020754Y012753D02*
X020125Y012753D01*
X020280Y012851D02*
X020698Y012851D01*
X020624Y012950D02*
X020354Y012950D01*
X020395Y013048D02*
X020583Y013048D01*
X020579Y013147D02*
X020399Y013147D01*
X020399Y013245D02*
X020579Y013245D01*
X020579Y013344D02*
X020399Y013344D01*
X020399Y013442D02*
X020579Y013442D01*
X020579Y013541D02*
X020399Y013541D01*
X020399Y013639D02*
X020579Y013639D01*
X020594Y013738D02*
X020384Y013738D01*
X020343Y013836D02*
X020635Y013836D01*
X020724Y013935D02*
X020254Y013935D01*
X021254Y013935D02*
X021724Y013935D01*
X021757Y013968D02*
X021641Y013852D01*
X021579Y013702D01*
X021579Y013059D01*
X021641Y012908D01*
X021757Y012793D01*
X021907Y012730D01*
X022071Y012730D01*
X022221Y012793D01*
X022337Y012908D01*
X022399Y013059D01*
X022399Y013702D01*
X022337Y013852D01*
X022221Y013968D01*
X022071Y014030D01*
X021907Y014030D01*
X021757Y013968D01*
X021635Y013836D02*
X021343Y013836D01*
X021384Y013738D02*
X021594Y013738D01*
X021579Y013639D02*
X021399Y013639D01*
X021399Y013541D02*
X021579Y013541D01*
X021579Y013442D02*
X021399Y013442D01*
X021399Y013344D02*
X021579Y013344D01*
X021579Y013245D02*
X021399Y013245D01*
X021399Y013147D02*
X021579Y013147D01*
X021583Y013048D02*
X021395Y013048D01*
X021354Y012950D02*
X021624Y012950D01*
X021698Y012851D02*
X021280Y012851D01*
X021224Y012753D02*
X021853Y012753D01*
X022125Y012753D02*
X022853Y012753D01*
X022698Y012851D02*
X022280Y012851D01*
X022354Y012950D02*
X022624Y012950D01*
X022583Y013048D02*
X022395Y013048D01*
X022399Y013147D02*
X022579Y013147D01*
X022579Y013245D02*
X022399Y013245D01*
X022399Y013344D02*
X022579Y013344D01*
X022579Y013442D02*
X022399Y013442D01*
X022399Y013541D02*
X022579Y013541D01*
X022579Y013639D02*
X022399Y013639D01*
X022384Y013738D02*
X022594Y013738D01*
X022635Y013836D02*
X022343Y013836D01*
X022254Y013935D02*
X022724Y013935D01*
X019853Y012753D02*
X019224Y012753D01*
X019292Y012851D02*
X019698Y012851D01*
X019624Y012950D02*
X019391Y012950D01*
X019489Y013048D02*
X019583Y013048D01*
X020192Y010980D02*
X020256Y010980D01*
X014171Y009207D02*
X011807Y009207D01*
X011888Y009108D02*
X014090Y009108D01*
X014049Y009010D02*
X011929Y009010D01*
X011945Y008911D02*
X014033Y008911D01*
X014033Y008813D02*
X011945Y008813D01*
X011914Y008714D02*
X014064Y008714D01*
X014109Y008616D02*
X011869Y008616D01*
X011771Y008517D02*
X014207Y008517D01*
X018754Y007138D02*
X004909Y007138D01*
X004909Y007040D02*
X018754Y007040D01*
X018754Y006941D02*
X004909Y006941D01*
X004909Y006843D02*
X018754Y006843D01*
X018754Y006744D02*
X004909Y006744D01*
X004909Y006646D02*
X018754Y006646D01*
X018754Y006547D02*
X004909Y006547D01*
X004909Y006449D02*
X018754Y006449D01*
X018754Y006350D02*
X004909Y006350D01*
X006760Y006252D02*
X018754Y006252D01*
X018754Y006153D02*
X006981Y006153D01*
X007112Y006055D02*
X018754Y006055D01*
X018754Y005956D02*
X007225Y005956D01*
X007323Y005858D02*
X018754Y005858D01*
X018778Y005759D02*
X007400Y005759D01*
X007454Y005661D02*
X018876Y005661D01*
X028939Y011965D02*
X029039Y011965D01*
X029039Y012063D02*
X028939Y012063D01*
X028939Y012162D02*
X029039Y012162D01*
X029039Y012260D02*
X028939Y012260D01*
X028939Y012556D02*
X029039Y012556D01*
X029039Y012654D02*
X028939Y012654D01*
X028939Y012753D02*
X029039Y012753D01*
X019638Y017284D02*
X004909Y017284D01*
X004909Y017382D02*
X019539Y017382D01*
X019441Y017481D02*
X006700Y017481D01*
X006917Y017579D02*
X019342Y017579D01*
X019319Y017678D02*
X007075Y017678D01*
X007206Y017776D02*
X019319Y017776D01*
X019319Y017875D02*
X007298Y017875D01*
X007372Y017973D02*
X019319Y017973D01*
X019319Y018072D02*
X007446Y018072D01*
X007499Y018170D02*
X019331Y018170D01*
X019430Y018269D02*
X007539Y018269D01*
X007576Y018367D02*
X019528Y018367D01*
X014179Y015215D02*
X011799Y015215D01*
X011884Y015117D02*
X014093Y015117D01*
X014053Y015018D02*
X011925Y015018D01*
X011945Y014920D02*
X014033Y014920D01*
X014033Y014821D02*
X011945Y014821D01*
X011917Y014723D02*
X014061Y014723D01*
X014102Y014624D02*
X011876Y014624D01*
X011779Y014526D02*
X014199Y014526D01*
X011199Y014526D02*
X004909Y014526D01*
X004909Y014624D02*
X011102Y014624D01*
X011061Y014723D02*
X004909Y014723D01*
X004909Y014821D02*
X011033Y014821D01*
X011033Y014920D02*
X004909Y014920D01*
X004909Y015018D02*
X011053Y015018D01*
X011093Y015117D02*
X004909Y015117D01*
X004909Y015215D02*
X011179Y015215D01*
M02*
