G75*
%MOIN*%
%OFA0B0*%
%FSLAX24Y24*%
%IPPOS*%
%LPD*%
%AMOC8*
5,1,8,0,0,1.08239X$1,22.5*
%
%ADD10C,0.0000*%
D10*
X006284Y003416D02*
X030694Y003416D01*
X030064Y004990D02*
X030066Y005040D01*
X030072Y005090D01*
X030082Y005139D01*
X030096Y005187D01*
X030113Y005234D01*
X030134Y005279D01*
X030159Y005323D01*
X030187Y005364D01*
X030219Y005403D01*
X030253Y005440D01*
X030290Y005474D01*
X030330Y005504D01*
X030372Y005531D01*
X030416Y005555D01*
X030462Y005576D01*
X030509Y005592D01*
X030557Y005605D01*
X030607Y005614D01*
X030656Y005619D01*
X030707Y005620D01*
X030757Y005617D01*
X030806Y005610D01*
X030855Y005599D01*
X030903Y005584D01*
X030949Y005566D01*
X030994Y005544D01*
X031037Y005518D01*
X031078Y005489D01*
X031117Y005457D01*
X031153Y005422D01*
X031185Y005384D01*
X031215Y005344D01*
X031242Y005301D01*
X031265Y005257D01*
X031284Y005211D01*
X031300Y005163D01*
X031312Y005114D01*
X031320Y005065D01*
X031324Y005015D01*
X031324Y004965D01*
X031320Y004915D01*
X031312Y004866D01*
X031300Y004817D01*
X031284Y004769D01*
X031265Y004723D01*
X031242Y004679D01*
X031215Y004636D01*
X031185Y004596D01*
X031153Y004558D01*
X031117Y004523D01*
X031078Y004491D01*
X031037Y004462D01*
X030994Y004436D01*
X030949Y004414D01*
X030903Y004396D01*
X030855Y004381D01*
X030806Y004370D01*
X030757Y004363D01*
X030707Y004360D01*
X030656Y004361D01*
X030607Y004366D01*
X030557Y004375D01*
X030509Y004388D01*
X030462Y004404D01*
X030416Y004425D01*
X030372Y004449D01*
X030330Y004476D01*
X030290Y004506D01*
X030253Y004540D01*
X030219Y004577D01*
X030187Y004616D01*
X030159Y004657D01*
X030134Y004701D01*
X030113Y004746D01*
X030096Y004793D01*
X030082Y004841D01*
X030072Y004890D01*
X030066Y004940D01*
X030064Y004990D01*
X030694Y003415D02*
X030771Y003417D01*
X030848Y003423D01*
X030925Y003432D01*
X031001Y003445D01*
X031077Y003462D01*
X031151Y003483D01*
X031225Y003507D01*
X031297Y003535D01*
X031367Y003566D01*
X031436Y003601D01*
X031504Y003639D01*
X031569Y003680D01*
X031632Y003725D01*
X031693Y003773D01*
X031752Y003823D01*
X031808Y003876D01*
X031861Y003932D01*
X031911Y003991D01*
X031959Y004052D01*
X032004Y004115D01*
X032045Y004180D01*
X032083Y004248D01*
X032118Y004317D01*
X032149Y004387D01*
X032177Y004459D01*
X032201Y004533D01*
X032222Y004607D01*
X032239Y004683D01*
X032252Y004759D01*
X032261Y004836D01*
X032267Y004913D01*
X032269Y004990D01*
X032269Y018770D01*
X030064Y018770D02*
X030066Y018820D01*
X030072Y018870D01*
X030082Y018919D01*
X030096Y018967D01*
X030113Y019014D01*
X030134Y019059D01*
X030159Y019103D01*
X030187Y019144D01*
X030219Y019183D01*
X030253Y019220D01*
X030290Y019254D01*
X030330Y019284D01*
X030372Y019311D01*
X030416Y019335D01*
X030462Y019356D01*
X030509Y019372D01*
X030557Y019385D01*
X030607Y019394D01*
X030656Y019399D01*
X030707Y019400D01*
X030757Y019397D01*
X030806Y019390D01*
X030855Y019379D01*
X030903Y019364D01*
X030949Y019346D01*
X030994Y019324D01*
X031037Y019298D01*
X031078Y019269D01*
X031117Y019237D01*
X031153Y019202D01*
X031185Y019164D01*
X031215Y019124D01*
X031242Y019081D01*
X031265Y019037D01*
X031284Y018991D01*
X031300Y018943D01*
X031312Y018894D01*
X031320Y018845D01*
X031324Y018795D01*
X031324Y018745D01*
X031320Y018695D01*
X031312Y018646D01*
X031300Y018597D01*
X031284Y018549D01*
X031265Y018503D01*
X031242Y018459D01*
X031215Y018416D01*
X031185Y018376D01*
X031153Y018338D01*
X031117Y018303D01*
X031078Y018271D01*
X031037Y018242D01*
X030994Y018216D01*
X030949Y018194D01*
X030903Y018176D01*
X030855Y018161D01*
X030806Y018150D01*
X030757Y018143D01*
X030707Y018140D01*
X030656Y018141D01*
X030607Y018146D01*
X030557Y018155D01*
X030509Y018168D01*
X030462Y018184D01*
X030416Y018205D01*
X030372Y018229D01*
X030330Y018256D01*
X030290Y018286D01*
X030253Y018320D01*
X030219Y018357D01*
X030187Y018396D01*
X030159Y018437D01*
X030134Y018481D01*
X030113Y018526D01*
X030096Y018573D01*
X030082Y018621D01*
X030072Y018670D01*
X030066Y018720D01*
X030064Y018770D01*
X030694Y020345D02*
X030771Y020343D01*
X030848Y020337D01*
X030925Y020328D01*
X031001Y020315D01*
X031077Y020298D01*
X031151Y020277D01*
X031225Y020253D01*
X031297Y020225D01*
X031367Y020194D01*
X031436Y020159D01*
X031504Y020121D01*
X031569Y020080D01*
X031632Y020035D01*
X031693Y019987D01*
X031752Y019937D01*
X031808Y019884D01*
X031861Y019828D01*
X031911Y019769D01*
X031959Y019708D01*
X032004Y019645D01*
X032045Y019580D01*
X032083Y019512D01*
X032118Y019443D01*
X032149Y019373D01*
X032177Y019301D01*
X032201Y019227D01*
X032222Y019153D01*
X032239Y019077D01*
X032252Y019001D01*
X032261Y018924D01*
X032267Y018847D01*
X032269Y018770D01*
X030694Y020345D02*
X006284Y020345D01*
X005654Y018770D02*
X005656Y018820D01*
X005662Y018870D01*
X005672Y018919D01*
X005686Y018967D01*
X005703Y019014D01*
X005724Y019059D01*
X005749Y019103D01*
X005777Y019144D01*
X005809Y019183D01*
X005843Y019220D01*
X005880Y019254D01*
X005920Y019284D01*
X005962Y019311D01*
X006006Y019335D01*
X006052Y019356D01*
X006099Y019372D01*
X006147Y019385D01*
X006197Y019394D01*
X006246Y019399D01*
X006297Y019400D01*
X006347Y019397D01*
X006396Y019390D01*
X006445Y019379D01*
X006493Y019364D01*
X006539Y019346D01*
X006584Y019324D01*
X006627Y019298D01*
X006668Y019269D01*
X006707Y019237D01*
X006743Y019202D01*
X006775Y019164D01*
X006805Y019124D01*
X006832Y019081D01*
X006855Y019037D01*
X006874Y018991D01*
X006890Y018943D01*
X006902Y018894D01*
X006910Y018845D01*
X006914Y018795D01*
X006914Y018745D01*
X006910Y018695D01*
X006902Y018646D01*
X006890Y018597D01*
X006874Y018549D01*
X006855Y018503D01*
X006832Y018459D01*
X006805Y018416D01*
X006775Y018376D01*
X006743Y018338D01*
X006707Y018303D01*
X006668Y018271D01*
X006627Y018242D01*
X006584Y018216D01*
X006539Y018194D01*
X006493Y018176D01*
X006445Y018161D01*
X006396Y018150D01*
X006347Y018143D01*
X006297Y018140D01*
X006246Y018141D01*
X006197Y018146D01*
X006147Y018155D01*
X006099Y018168D01*
X006052Y018184D01*
X006006Y018205D01*
X005962Y018229D01*
X005920Y018256D01*
X005880Y018286D01*
X005843Y018320D01*
X005809Y018357D01*
X005777Y018396D01*
X005749Y018437D01*
X005724Y018481D01*
X005703Y018526D01*
X005686Y018573D01*
X005672Y018621D01*
X005662Y018670D01*
X005656Y018720D01*
X005654Y018770D01*
X004709Y018770D02*
X004711Y018847D01*
X004717Y018924D01*
X004726Y019001D01*
X004739Y019077D01*
X004756Y019153D01*
X004777Y019227D01*
X004801Y019301D01*
X004829Y019373D01*
X004860Y019443D01*
X004895Y019512D01*
X004933Y019580D01*
X004974Y019645D01*
X005019Y019708D01*
X005067Y019769D01*
X005117Y019828D01*
X005170Y019884D01*
X005226Y019937D01*
X005285Y019987D01*
X005346Y020035D01*
X005409Y020080D01*
X005474Y020121D01*
X005542Y020159D01*
X005611Y020194D01*
X005681Y020225D01*
X005753Y020253D01*
X005827Y020277D01*
X005901Y020298D01*
X005977Y020315D01*
X006053Y020328D01*
X006130Y020337D01*
X006207Y020343D01*
X006284Y020345D01*
X004709Y018770D02*
X004709Y004990D01*
X005654Y004990D02*
X005656Y005040D01*
X005662Y005090D01*
X005672Y005139D01*
X005686Y005187D01*
X005703Y005234D01*
X005724Y005279D01*
X005749Y005323D01*
X005777Y005364D01*
X005809Y005403D01*
X005843Y005440D01*
X005880Y005474D01*
X005920Y005504D01*
X005962Y005531D01*
X006006Y005555D01*
X006052Y005576D01*
X006099Y005592D01*
X006147Y005605D01*
X006197Y005614D01*
X006246Y005619D01*
X006297Y005620D01*
X006347Y005617D01*
X006396Y005610D01*
X006445Y005599D01*
X006493Y005584D01*
X006539Y005566D01*
X006584Y005544D01*
X006627Y005518D01*
X006668Y005489D01*
X006707Y005457D01*
X006743Y005422D01*
X006775Y005384D01*
X006805Y005344D01*
X006832Y005301D01*
X006855Y005257D01*
X006874Y005211D01*
X006890Y005163D01*
X006902Y005114D01*
X006910Y005065D01*
X006914Y005015D01*
X006914Y004965D01*
X006910Y004915D01*
X006902Y004866D01*
X006890Y004817D01*
X006874Y004769D01*
X006855Y004723D01*
X006832Y004679D01*
X006805Y004636D01*
X006775Y004596D01*
X006743Y004558D01*
X006707Y004523D01*
X006668Y004491D01*
X006627Y004462D01*
X006584Y004436D01*
X006539Y004414D01*
X006493Y004396D01*
X006445Y004381D01*
X006396Y004370D01*
X006347Y004363D01*
X006297Y004360D01*
X006246Y004361D01*
X006197Y004366D01*
X006147Y004375D01*
X006099Y004388D01*
X006052Y004404D01*
X006006Y004425D01*
X005962Y004449D01*
X005920Y004476D01*
X005880Y004506D01*
X005843Y004540D01*
X005809Y004577D01*
X005777Y004616D01*
X005749Y004657D01*
X005724Y004701D01*
X005703Y004746D01*
X005686Y004793D01*
X005672Y004841D01*
X005662Y004890D01*
X005656Y004940D01*
X005654Y004990D01*
X004709Y004990D02*
X004711Y004913D01*
X004717Y004836D01*
X004726Y004759D01*
X004739Y004683D01*
X004756Y004607D01*
X004777Y004533D01*
X004801Y004459D01*
X004829Y004387D01*
X004860Y004317D01*
X004895Y004248D01*
X004933Y004180D01*
X004974Y004115D01*
X005019Y004052D01*
X005067Y003991D01*
X005117Y003932D01*
X005170Y003876D01*
X005226Y003823D01*
X005285Y003773D01*
X005346Y003725D01*
X005409Y003680D01*
X005474Y003639D01*
X005542Y003601D01*
X005611Y003566D01*
X005681Y003535D01*
X005753Y003507D01*
X005827Y003483D01*
X005901Y003462D01*
X005977Y003445D01*
X006053Y003432D01*
X006130Y003423D01*
X006207Y003417D01*
X006284Y003415D01*
X011233Y008880D02*
X011235Y008911D01*
X011241Y008942D01*
X011250Y008972D01*
X011263Y009001D01*
X011280Y009028D01*
X011300Y009052D01*
X011322Y009074D01*
X011348Y009093D01*
X011375Y009109D01*
X011404Y009121D01*
X011434Y009130D01*
X011465Y009135D01*
X011497Y009136D01*
X011528Y009133D01*
X011559Y009126D01*
X011589Y009116D01*
X011617Y009102D01*
X011643Y009084D01*
X011667Y009064D01*
X011688Y009040D01*
X011707Y009015D01*
X011722Y008987D01*
X011733Y008958D01*
X011741Y008927D01*
X011745Y008896D01*
X011745Y008864D01*
X011741Y008833D01*
X011733Y008802D01*
X011722Y008773D01*
X011707Y008745D01*
X011688Y008720D01*
X011667Y008696D01*
X011643Y008676D01*
X011617Y008658D01*
X011589Y008644D01*
X011559Y008634D01*
X011528Y008627D01*
X011497Y008624D01*
X011465Y008625D01*
X011434Y008630D01*
X011404Y008639D01*
X011375Y008651D01*
X011348Y008667D01*
X011322Y008686D01*
X011300Y008708D01*
X011280Y008732D01*
X011263Y008759D01*
X011250Y008788D01*
X011241Y008818D01*
X011235Y008849D01*
X011233Y008880D01*
X014233Y008880D02*
X014235Y008911D01*
X014241Y008942D01*
X014250Y008972D01*
X014263Y009001D01*
X014280Y009028D01*
X014300Y009052D01*
X014322Y009074D01*
X014348Y009093D01*
X014375Y009109D01*
X014404Y009121D01*
X014434Y009130D01*
X014465Y009135D01*
X014497Y009136D01*
X014528Y009133D01*
X014559Y009126D01*
X014589Y009116D01*
X014617Y009102D01*
X014643Y009084D01*
X014667Y009064D01*
X014688Y009040D01*
X014707Y009015D01*
X014722Y008987D01*
X014733Y008958D01*
X014741Y008927D01*
X014745Y008896D01*
X014745Y008864D01*
X014741Y008833D01*
X014733Y008802D01*
X014722Y008773D01*
X014707Y008745D01*
X014688Y008720D01*
X014667Y008696D01*
X014643Y008676D01*
X014617Y008658D01*
X014589Y008644D01*
X014559Y008634D01*
X014528Y008627D01*
X014497Y008624D01*
X014465Y008625D01*
X014434Y008630D01*
X014404Y008639D01*
X014375Y008651D01*
X014348Y008667D01*
X014322Y008686D01*
X014300Y008708D01*
X014280Y008732D01*
X014263Y008759D01*
X014250Y008788D01*
X014241Y008818D01*
X014235Y008849D01*
X014233Y008880D01*
X014233Y014880D02*
X014235Y014911D01*
X014241Y014942D01*
X014250Y014972D01*
X014263Y015001D01*
X014280Y015028D01*
X014300Y015052D01*
X014322Y015074D01*
X014348Y015093D01*
X014375Y015109D01*
X014404Y015121D01*
X014434Y015130D01*
X014465Y015135D01*
X014497Y015136D01*
X014528Y015133D01*
X014559Y015126D01*
X014589Y015116D01*
X014617Y015102D01*
X014643Y015084D01*
X014667Y015064D01*
X014688Y015040D01*
X014707Y015015D01*
X014722Y014987D01*
X014733Y014958D01*
X014741Y014927D01*
X014745Y014896D01*
X014745Y014864D01*
X014741Y014833D01*
X014733Y014802D01*
X014722Y014773D01*
X014707Y014745D01*
X014688Y014720D01*
X014667Y014696D01*
X014643Y014676D01*
X014617Y014658D01*
X014589Y014644D01*
X014559Y014634D01*
X014528Y014627D01*
X014497Y014624D01*
X014465Y014625D01*
X014434Y014630D01*
X014404Y014639D01*
X014375Y014651D01*
X014348Y014667D01*
X014322Y014686D01*
X014300Y014708D01*
X014280Y014732D01*
X014263Y014759D01*
X014250Y014788D01*
X014241Y014818D01*
X014235Y014849D01*
X014233Y014880D01*
X011233Y014880D02*
X011235Y014911D01*
X011241Y014942D01*
X011250Y014972D01*
X011263Y015001D01*
X011280Y015028D01*
X011300Y015052D01*
X011322Y015074D01*
X011348Y015093D01*
X011375Y015109D01*
X011404Y015121D01*
X011434Y015130D01*
X011465Y015135D01*
X011497Y015136D01*
X011528Y015133D01*
X011559Y015126D01*
X011589Y015116D01*
X011617Y015102D01*
X011643Y015084D01*
X011667Y015064D01*
X011688Y015040D01*
X011707Y015015D01*
X011722Y014987D01*
X011733Y014958D01*
X011741Y014927D01*
X011745Y014896D01*
X011745Y014864D01*
X011741Y014833D01*
X011733Y014802D01*
X011722Y014773D01*
X011707Y014745D01*
X011688Y014720D01*
X011667Y014696D01*
X011643Y014676D01*
X011617Y014658D01*
X011589Y014644D01*
X011559Y014634D01*
X011528Y014627D01*
X011497Y014624D01*
X011465Y014625D01*
X011434Y014630D01*
X011404Y014639D01*
X011375Y014651D01*
X011348Y014667D01*
X011322Y014686D01*
X011300Y014708D01*
X011280Y014732D01*
X011263Y014759D01*
X011250Y014788D01*
X011241Y014818D01*
X011235Y014849D01*
X011233Y014880D01*
M02*
