%
M48
M72
T01C0.0315
T02C0.0320
T03C0.0354
T04C0.0400
T05C0.0512
T06C0.1260
%
T01
X25989Y17380
X26989Y17380
T02
X26989Y9880
X25989Y9880
X24989Y9880
X22989Y10380
X21989Y10380
X20989Y10380
X19989Y10380
X19989Y13380
X20989Y13380
X21989Y13380
X22989Y13380
X25989Y13380
X25989Y12380
T03
X23989Y15380
X27989Y15380
X27989Y7880
X27989Y6380
X23989Y6380
X23989Y7880
T04
X21989Y6880
X20989Y6880
X19989Y6880
X19989Y7880
X20989Y7880
X21989Y7880
X28989Y12380
X28989Y13380
X23989Y16880
X22989Y17880
X21989Y16880
T05
X11489Y8880
X14489Y8880
X14489Y14880
X11489Y14880
X19989Y16380
X19989Y17880
T06
X6284Y4990
X6284Y18770
X30694Y18770
X30694Y4990
M30
